<svg width="560" height="363" viewBox="0 0 560 363" fill="none" xmlns="http://www.w3.org/2000/svg">
<path d="M222.188 63.7373C222.089 65.1143 221.579 66.1982 220.659 66.9893C219.745 67.7803 218.538 68.1758 217.038 68.1758C215.397 68.1758 214.105 67.625 213.162 66.5234C212.225 65.416 211.756 63.8984 211.756 61.9707V61.1885C211.756 59.958 211.973 58.874 212.406 57.9365C212.84 56.999 213.458 56.2812 214.261 55.7832C215.069 55.2793 216.007 55.0273 217.073 55.0273C218.55 55.0273 219.739 55.4229 220.642 56.2139C221.544 57.0049 222.065 58.1152 222.206 59.5449H219.569C219.505 58.7188 219.273 58.1211 218.875 57.752C218.482 57.377 217.882 57.1895 217.073 57.1895C216.194 57.1895 215.535 57.5059 215.096 58.1387C214.662 58.7656 214.439 59.7412 214.428 61.0654V62.0322C214.428 63.415 214.636 64.4258 215.052 65.0645C215.474 65.7031 216.136 66.0225 217.038 66.0225C217.853 66.0225 218.459 65.8379 218.857 65.4688C219.262 65.0938 219.493 64.5166 219.552 63.7373H222.188ZM226.724 68H224.087V55.2031H226.724V68ZM238.861 55.2031V63.6318C238.861 65.0322 238.422 66.1396 237.543 66.9541C236.67 67.7686 235.475 68.1758 233.957 68.1758C232.463 68.1758 231.276 67.7803 230.397 66.9893C229.519 66.1982 229.07 65.1113 229.053 63.7285V55.2031H231.689V63.6494C231.689 64.4873 231.889 65.0996 232.287 65.4863C232.691 65.8672 233.248 66.0576 233.957 66.0576C235.439 66.0576 236.192 65.2783 236.216 63.7197V55.2031H238.861ZM241.023 68V55.2031H244.961C246.086 55.2031 247.091 55.458 247.976 55.9678C248.866 56.4717 249.561 57.1924 250.059 58.1299C250.557 59.0615 250.806 60.1221 250.806 61.3115V61.9004C250.806 63.0898 250.56 64.1475 250.067 65.0732C249.581 65.999 248.893 66.7168 248.002 67.2266C247.111 67.7363 246.106 67.9941 244.987 68H241.023ZM243.66 57.3389V65.8818H244.935C245.966 65.8818 246.754 65.5449 247.299 64.8711C247.844 64.1973 248.122 63.2334 248.134 61.9795V61.3027C248.134 60.002 247.864 59.0176 247.325 58.3496C246.786 57.6758 245.998 57.3389 244.961 57.3389H243.66ZM259.762 65.3633H255.139L254.26 68H251.456L256.22 55.2031H258.663L263.453 68H260.649L259.762 65.3633ZM255.851 63.2275H259.05L257.441 58.4375L255.851 63.2275ZM264.648 68V55.2031H268.586C269.711 55.2031 270.716 55.458 271.601 55.9678C272.491 56.4717 273.186 57.1924 273.684 58.1299C274.182 59.0615 274.431 60.1221 274.431 61.3115V61.9004C274.431 63.0898 274.185 64.1475 273.692 65.0732C273.206 65.999 272.518 66.7168 271.627 67.2266C270.736 67.7363 269.731 67.9941 268.612 68H264.648ZM267.285 57.3389V65.8818H268.56C269.591 65.8818 270.379 65.5449 270.924 64.8711C271.469 64.1973 271.747 63.2334 271.759 61.9795V61.3027C271.759 60.002 271.489 59.0176 270.95 58.3496C270.411 57.6758 269.623 57.3389 268.586 57.3389H267.285Z" fill="#F0F0F0"/>
<path d="M211.969 78.375C211.969 77.1823 212.128 76.0469 212.445 74.9688C212.763 73.8906 213.232 72.9375 213.852 72.1094C214.471 71.276 215.143 70.6979 215.867 70.375L216.305 71.5938C215.544 72.1562 214.951 73.026 214.523 74.2031C214.096 75.3802 213.883 76.7552 213.883 78.3281V78.5703C213.883 80.1484 214.094 81.5286 214.516 82.7109C214.938 83.8932 215.534 84.776 216.305 85.3594L215.867 86.5547C215.159 86.237 214.497 85.6745 213.883 84.8672C213.273 84.0651 212.807 83.138 212.484 82.0859C212.161 81.0339 211.99 79.9349 211.969 78.7891V78.375ZM217.641 83V71.625H221.141C222.141 71.625 223.034 71.8516 223.82 72.3047C224.612 72.7526 225.229 73.3932 225.672 74.2266C226.115 75.0547 226.336 75.9974 226.336 77.0547V77.5781C226.336 78.6354 226.117 79.5755 225.68 80.3984C225.247 81.2214 224.635 81.8594 223.844 82.3125C223.052 82.7656 222.159 82.9948 221.164 83H217.641ZM219.984 73.5234V81.1172H221.117C222.034 81.1172 222.734 80.8177 223.219 80.2188C223.703 79.6198 223.951 78.763 223.961 77.6484V77.0469C223.961 75.8906 223.721 75.0156 223.242 74.4219C222.763 73.8229 222.062 73.5234 221.141 73.5234H219.984ZM234.891 78.0703H230.391V81.1172H235.672V83H228.047V71.625H235.656V73.5234H230.391V76.2344H234.891V78.0703ZM239.391 78.9922V83H237.047V71.625H241.484C242.339 71.625 243.089 71.7812 243.734 72.0938C244.385 72.4062 244.885 72.8516 245.234 73.4297C245.583 74.0026 245.758 74.6562 245.758 75.3906C245.758 76.5052 245.375 77.3854 244.609 78.0312C243.849 78.6719 242.794 78.9922 241.445 78.9922H239.391ZM239.391 77.0938H241.484C242.104 77.0938 242.576 76.9479 242.898 76.6562C243.227 76.3646 243.391 75.9479 243.391 75.4062C243.391 74.849 243.227 74.3984 242.898 74.0547C242.57 73.7109 242.117 73.5339 241.539 73.5234H239.391V77.0938ZM252.406 80.6562H248.297L247.516 83H245.023L249.258 71.625H251.43L255.688 83H253.195L252.406 80.6562ZM248.93 78.7578H251.773L250.344 74.5L248.93 78.7578ZM260.961 78.8359H259.094V83H256.75V71.625H260.977C262.32 71.625 263.357 71.9245 264.086 72.5234C264.815 73.1224 265.18 73.9688 265.18 75.0625C265.18 75.8385 265.01 76.487 264.672 77.0078C264.339 77.5234 263.831 77.9349 263.148 78.2422L265.609 82.8906V83H263.094L260.961 78.8359ZM259.094 76.9375H260.984C261.573 76.9375 262.029 76.7891 262.352 76.4922C262.674 76.1901 262.836 75.776 262.836 75.25C262.836 74.7135 262.682 74.2917 262.375 73.9844C262.073 73.6771 261.607 73.5234 260.977 73.5234H259.094V76.9375ZM275.141 73.5234H271.656V83H269.312V73.5234H265.875V71.625H275.141V73.5234ZM281.969 80.6562H277.859L277.078 83H274.586L278.82 71.625H280.992L285.25 83H282.758L281.969 80.6562ZM278.492 78.7578H281.336L279.906 74.5L278.492 78.7578ZM289.375 71.625L292.297 79.875L295.203 71.625H298.281V83H295.93V79.8906L296.164 74.5234L293.094 83H291.484L288.422 74.5312L288.656 79.8906V83H286.312V71.625H289.375ZM307.172 78.0703H302.672V81.1172H307.953V83H300.328V71.625H307.938V73.5234H302.672V76.2344H307.172V78.0703ZM318.578 83H316.234L311.672 75.5156V83H309.328V71.625H311.672L316.242 79.125V71.625H318.578V83ZM328.953 73.5234H325.469V83H323.125V73.5234H319.688V71.625H328.953V73.5234ZM339.422 77.5703C339.422 78.6901 339.224 79.6719 338.828 80.5156C338.432 81.3594 337.865 82.0104 337.125 82.4688C336.391 82.9271 335.547 83.1562 334.594 83.1562C333.651 83.1562 332.81 82.9297 332.07 82.4766C331.331 82.0234 330.758 81.3776 330.352 80.5391C329.945 79.6953 329.74 78.7266 329.734 77.6328V77.0703C329.734 75.9505 329.935 74.9661 330.336 74.1172C330.742 73.263 331.312 72.6094 332.047 72.1562C332.786 71.6979 333.63 71.4688 334.578 71.4688C335.526 71.4688 336.367 71.6979 337.102 72.1562C337.841 72.6094 338.411 73.263 338.812 74.1172C339.219 74.9661 339.422 75.9479 339.422 77.0625V77.5703ZM337.047 77.0547C337.047 75.862 336.833 74.9557 336.406 74.3359C335.979 73.7161 335.37 73.4062 334.578 73.4062C333.792 73.4062 333.185 73.7135 332.758 74.3281C332.331 74.9375 332.115 75.8333 332.109 77.0156V77.5703C332.109 78.7318 332.323 79.6328 332.75 80.2734C333.177 80.9141 333.792 81.2344 334.594 81.2344C335.38 81.2344 335.984 80.9271 336.406 80.3125C336.828 79.6927 337.042 78.7917 337.047 77.6094V77.0547ZM344.867 78.5547C344.867 79.7318 344.698 80.8646 344.359 81.9531C344.021 83.0417 343.534 84.0026 342.898 84.8359C342.263 85.6693 341.583 86.2422 340.859 86.5547L340.422 85.3594C341.161 84.8021 341.745 83.9427 342.172 82.7812C342.599 81.6198 342.82 80.2839 342.836 78.7734V78.3594C342.836 76.8021 342.622 75.4297 342.195 74.2422C341.773 73.0547 341.182 72.1641 340.422 71.5703L340.859 70.375C341.568 70.6823 342.234 71.2396 342.859 72.0469C343.49 72.8542 343.977 73.7943 344.32 74.8672C344.669 75.9401 344.852 77.0521 344.867 78.2031V78.5547Z" fill="#F0F0F0"/>
<path d="M414.073 48V38.7578H416.682C417.486 38.7578 418.197 38.9355 418.814 39.291C419.432 39.6465 419.908 40.1522 420.243 40.8081C420.581 41.464 420.753 42.2173 420.757 43.0679V43.6582C420.757 44.5299 420.588 45.2938 420.249 45.9497C419.915 46.6056 419.434 47.1092 418.808 47.4604C418.186 47.8117 417.46 47.9915 416.631 48H414.073ZM415.292 39.7607V47.0034H416.574C417.513 47.0034 418.243 46.7114 418.764 46.1274C419.288 45.5435 419.551 44.7119 419.551 43.6328V43.0933C419.551 42.0438 419.303 41.2292 418.808 40.6494C418.317 40.0654 417.619 39.7692 416.713 39.7607H415.292ZM422.604 48V38.7578H425.213C426.017 38.7578 426.728 38.9355 427.346 39.291C427.964 39.6465 428.44 40.1522 428.774 40.8081C429.112 41.464 429.284 42.2173 429.288 43.0679V43.6582C429.288 44.5299 429.119 45.2938 428.78 45.9497C428.446 46.6056 427.966 47.1092 427.339 47.4604C426.717 47.8117 425.992 47.9915 425.162 48H422.604ZM423.823 39.7607V47.0034H425.105C426.044 47.0034 426.774 46.7114 427.295 46.1274C427.82 45.5435 428.082 44.7119 428.082 43.6328V43.0933C428.082 42.0438 427.834 41.2292 427.339 40.6494C426.848 40.0654 426.15 39.7692 425.245 39.7607H423.823ZM433.395 44.5532H430.297V43.5947H433.395V44.5532ZM436.302 38.7578L439.324 46.2988L442.345 38.7578H443.926V48H442.707V44.4009L442.821 40.5161L439.787 48H438.854L435.826 40.5352L435.947 44.4009V48H434.728V38.7578H436.302ZM447.652 38.7578L450.673 46.2988L453.695 38.7578H455.275V48H454.057V44.4009L454.171 40.5161L451.137 48H450.204L447.176 40.5352L447.296 44.4009V48H446.078V38.7578H447.652ZM459.687 44.5532H456.589V43.5947H459.687V44.5532ZM463.838 43.3979L466.25 38.7578H467.634L464.448 44.5532V48H463.229V44.5532L460.042 38.7578H461.439L463.838 43.3979ZM471.76 43.3979L474.172 38.7578H475.556L472.37 44.5532V48H471.151V44.5532L467.964 38.7578H469.361L471.76 43.3979ZM479.682 43.3979L482.094 38.7578H483.478L480.292 44.5532V48H479.073V44.5532L475.886 38.7578H477.283L479.682 43.3979ZM487.604 43.3979L490.016 38.7578H491.4L488.213 44.5532V48H486.995V44.5532L483.808 38.7578H485.205L487.604 43.3979Z" fill="#F0F0F0"/>
<path d="M211.17 43.9185H207.292V48H206.073V38.7578H211.798V39.7607H207.292V42.9219H211.17V43.9185ZM218.482 43.728H214.477V47.0034H219.13V48H213.258V38.7578H219.066V39.7607H214.477V42.7314H218.482V43.728ZM227.445 45.0674C227.331 46.0449 226.969 46.8003 226.36 47.3335C225.755 47.8625 224.949 48.127 223.941 48.127C222.85 48.127 221.974 47.7355 221.313 46.9526C220.658 46.1698 220.33 45.1224 220.33 43.8105V42.9219C220.33 42.0628 220.482 41.3075 220.787 40.6558C221.096 40.0041 221.531 39.5047 222.094 39.1577C222.657 38.8065 223.309 38.6309 224.049 38.6309C225.031 38.6309 225.818 38.9059 226.411 39.4561C227.003 40.002 227.348 40.7594 227.445 41.7285H226.22C226.114 40.9922 225.884 40.459 225.528 40.1289C225.177 39.7988 224.684 39.6338 224.049 39.6338C223.271 39.6338 222.659 39.9215 222.215 40.4971C221.775 41.0726 221.555 41.8914 221.555 42.9536V43.8486C221.555 44.8516 221.764 45.6493 222.183 46.2417C222.602 46.8341 223.188 47.1304 223.941 47.1304C224.618 47.1304 225.137 46.978 225.497 46.6733C225.861 46.3644 226.102 45.8291 226.22 45.0674H227.445ZM236.218 48H234.993V43.728H230.333V48H229.115V38.7578H230.333V42.7314H234.993V38.7578H236.218V48ZM243.6 45.5879H239.728L238.858 48H237.602L241.131 38.7578H242.197L245.733 48H244.482L243.6 45.5879ZM240.096 44.585H243.238L241.664 40.2622L240.096 44.585ZM250.202 48V38.7578H252.811C253.615 38.7578 254.326 38.9355 254.943 39.291C255.561 39.6465 256.037 40.1522 256.372 40.8081C256.71 41.464 256.882 42.2173 256.886 43.0679V43.6582C256.886 44.5299 256.716 45.2938 256.378 45.9497C256.044 46.6056 255.563 47.1092 254.937 47.4604C254.315 47.8117 253.589 47.9915 252.76 48H250.202ZM251.42 39.7607V47.0034H252.703C253.642 47.0034 254.372 46.7114 254.893 46.1274C255.417 45.5435 255.68 44.7119 255.68 43.6328V43.0933C255.68 42.0438 255.432 41.2292 254.937 40.6494C254.446 40.0654 253.748 39.7692 252.842 39.7607H251.42ZM263.957 43.728H259.952V47.0034H264.604V48H258.733V38.7578H264.541V39.7607H259.952V42.7314H263.957V43.728ZM276.449 48H275.224L270.571 40.8779V48H269.346V38.7578H270.571L275.237 45.9116V38.7578H276.449V48ZM283.832 45.5879H279.959L279.09 48H277.833L281.362 38.7578H282.429L285.964 48H284.714L283.832 45.5879ZM280.328 44.585H283.47L281.896 40.2622L280.328 44.585ZM293.931 45.0674C293.816 46.0449 293.455 46.8003 292.845 47.3335C292.24 47.8625 291.434 48.127 290.427 48.127C289.335 48.127 288.459 47.7355 287.799 46.9526C287.143 46.1698 286.815 45.1224 286.815 43.8105V42.9219C286.815 42.0628 286.967 41.3075 287.272 40.6558C287.581 40.0041 288.017 39.5047 288.58 39.1577C289.142 38.8065 289.794 38.6309 290.535 38.6309C291.516 38.6309 292.304 38.9059 292.896 39.4561C293.488 40.002 293.833 40.7594 293.931 41.7285H292.706C292.6 40.9922 292.369 40.459 292.014 40.1289C291.662 39.7988 291.169 39.6338 290.535 39.6338C289.756 39.6338 289.145 39.9215 288.7 40.4971C288.26 41.0726 288.04 41.8914 288.04 42.9536V43.8486C288.04 44.8516 288.25 45.6493 288.668 46.2417C289.087 46.8341 289.674 47.1304 290.427 47.1304C291.104 47.1304 291.622 46.978 291.982 46.6733C292.346 46.3644 292.587 45.8291 292.706 45.0674H293.931ZM296.908 48H295.689V38.7578H296.908V48ZM300.716 38.7578L303.738 46.2988L306.759 38.7578H308.34V48H307.121V44.4009L307.235 40.5161L304.201 48H303.268L300.24 40.5352L300.361 44.4009V48H299.142V38.7578H300.716ZM311.799 48H310.581V38.7578H311.799V48ZM319.258 43.728H315.252V47.0034H319.905V48H314.034V38.7578H319.842V39.7607H315.252V42.7314H319.258V43.728ZM328.525 48H327.3L322.647 40.8779V48H321.422V38.7578H322.647L327.313 45.9116V38.7578H328.525V48ZM336.885 39.7607H333.915V48H332.702V39.7607H329.738V38.7578H336.885V39.7607ZM345.188 43.6772C345.188 44.5828 345.036 45.3742 344.731 46.0513C344.426 46.7241 343.995 47.2383 343.436 47.5938C342.877 47.9492 342.226 48.127 341.481 48.127C340.753 48.127 340.108 47.9492 339.545 47.5938C338.982 47.234 338.544 46.7241 338.231 46.064C337.922 45.3996 337.763 44.6315 337.755 43.7598V43.0933C337.755 42.2046 337.909 41.4196 338.218 40.7383C338.527 40.057 338.963 39.5365 339.526 39.1768C340.093 38.8128 340.74 38.6309 341.468 38.6309C342.209 38.6309 342.861 38.8107 343.423 39.1704C343.99 39.5259 344.426 40.0443 344.731 40.7256C345.036 41.4027 345.188 42.1919 345.188 43.0933V43.6772ZM343.976 43.0806C343.976 41.9845 343.756 41.1445 343.315 40.5605C342.875 39.9723 342.26 39.6782 341.468 39.6782C340.698 39.6782 340.091 39.9723 339.646 40.5605C339.206 41.1445 338.98 41.957 338.967 42.998V43.6772C338.967 44.7394 339.189 45.5752 339.634 46.1846C340.082 46.7897 340.698 47.0923 341.481 47.0923C342.268 47.0923 342.877 46.8066 343.309 46.2354C343.741 45.6598 343.963 44.8368 343.976 43.7661V43.0806Z" fill="#F0F0F0"/>
<path d="M210.298 100.003H214.678V101H209.073V91.7578H210.298V100.003ZM222.231 91.7578V98.042C222.227 98.9137 221.952 99.6268 221.406 100.181C220.865 100.736 220.128 101.047 219.197 101.114L218.874 101.127C217.862 101.127 217.056 100.854 216.455 100.308C215.854 99.7622 215.549 99.0111 215.541 98.0547V91.7578H216.747V98.0166C216.747 98.6852 216.931 99.2057 217.299 99.5781C217.667 99.9463 218.192 100.13 218.874 100.13C219.563 100.13 220.09 99.9463 220.454 99.5781C220.822 99.21 221.006 98.6916 221.006 98.0229V91.7578H222.231ZM230.979 99.7876C230.665 100.236 230.227 100.573 229.665 100.797C229.106 101.017 228.454 101.127 227.709 101.127C226.956 101.127 226.288 100.951 225.704 100.6C225.12 100.245 224.667 99.741 224.345 99.0894C224.028 98.4377 223.865 97.6823 223.856 96.8232V96.0171C223.856 94.6248 224.18 93.5457 224.828 92.7798C225.479 92.0138 226.393 91.6309 227.57 91.6309C228.535 91.6309 229.311 91.8784 229.899 92.3735C230.488 92.8644 230.847 93.5627 230.979 94.4683H229.76C229.531 93.2453 228.803 92.6338 227.576 92.6338C226.759 92.6338 226.139 92.9215 225.716 93.4971C225.297 94.0684 225.086 94.8978 225.082 95.9854V96.7407C225.082 97.7775 225.319 98.6027 225.792 99.2163C226.266 99.8257 226.908 100.13 227.716 100.13C228.173 100.13 228.573 100.08 228.916 99.978C229.258 99.8765 229.542 99.7051 229.766 99.4639V97.3882H227.627V96.3979H230.979V99.7876ZM238.12 98.5879H234.248L233.378 101H232.121L235.65 91.7578H236.717L240.252 101H239.002L238.12 98.5879ZM234.616 97.585H237.758L236.184 93.2622L234.616 97.585ZM244.886 97.2612H242.715V101H241.49V91.7578H244.55C245.591 91.7578 246.391 91.9948 246.949 92.4688C247.512 92.9427 247.793 93.6325 247.793 94.5381C247.793 95.1136 247.637 95.6151 247.324 96.0425C247.015 96.4699 246.583 96.7894 246.029 97.001L248.2 100.924V101H246.892L244.886 97.2612ZM242.715 96.2646H244.588C245.193 96.2646 245.673 96.1081 246.029 95.7949C246.389 95.4818 246.568 95.0628 246.568 94.5381C246.568 93.9668 246.397 93.5288 246.054 93.2241C245.716 92.9194 245.225 92.765 244.582 92.7607H242.715V96.2646ZM252.732 101V91.7578H255.341C256.145 91.7578 256.856 91.9355 257.474 92.291C258.091 92.6465 258.568 93.1522 258.902 93.8081C259.24 94.464 259.412 95.2173 259.416 96.0679V96.6582C259.416 97.5299 259.247 98.2938 258.908 98.9497C258.574 99.6056 258.094 100.109 257.467 100.46C256.845 100.812 256.119 100.992 255.29 101H252.732ZM253.951 92.7607V100.003H255.233C256.172 100.003 256.902 99.7114 257.423 99.1274C257.948 98.5435 258.21 97.7119 258.21 96.6328V96.0933C258.21 95.0438 257.962 94.2292 257.467 93.6494C256.976 93.0654 256.278 92.7692 255.373 92.7607H253.951ZM266.487 96.728H262.482V100.003H267.135V101H261.263V91.7578H267.071V92.7607H262.482V95.7314H266.487V96.728ZM278.979 101H277.754L273.102 93.8779V101H271.876V91.7578H273.102L277.767 98.9116V91.7578H278.979V101ZM286.362 98.5879H282.49L281.62 101H280.363L283.893 91.7578H284.959L288.495 101H287.244L286.362 98.5879ZM282.858 97.585H286L284.426 93.2622L282.858 97.585ZM296.461 98.0674C296.347 99.0449 295.985 99.8003 295.375 100.333C294.77 100.862 293.964 101.127 292.957 101.127C291.865 101.127 290.989 100.736 290.329 99.9526C289.673 99.1698 289.345 98.1224 289.345 96.8105V95.9219C289.345 95.0628 289.498 94.3075 289.802 93.6558C290.111 93.0041 290.547 92.5047 291.11 92.1577C291.673 91.8065 292.324 91.6309 293.065 91.6309C294.047 91.6309 294.834 91.9059 295.426 92.4561C296.019 93.002 296.364 93.7594 296.461 94.7285H295.236C295.13 93.9922 294.899 93.459 294.544 93.1289C294.193 92.7988 293.7 92.6338 293.065 92.6338C292.286 92.6338 291.675 92.9215 291.23 93.4971C290.79 94.0726 290.57 94.8914 290.57 95.9536V96.8486C290.57 97.8516 290.78 98.6493 291.199 99.2417C291.618 99.8341 292.204 100.13 292.957 100.13C293.634 100.13 294.153 99.978 294.512 99.6733C294.876 99.3644 295.117 98.8291 295.236 98.0674H296.461ZM299.438 101H298.219V91.7578H299.438V101ZM303.247 91.7578L306.268 99.2988L309.29 91.7578H310.87V101H309.651V97.4009L309.766 93.5161L306.731 101H305.798L302.771 93.5352L302.891 97.4009V101H301.672V91.7578H303.247ZM314.33 101H313.111V91.7578H314.33V101ZM321.788 96.728H317.783V100.003H322.436V101H316.564V91.7578H322.372V92.7607H317.783V95.7314H321.788V96.728ZM331.056 101H329.831L325.178 93.8779V101H323.953V91.7578H325.178L329.843 98.9116V91.7578H331.056V101ZM339.416 92.7607H336.445V101H335.232V92.7607H332.268V91.7578H339.416V92.7607ZM347.718 96.6772C347.718 97.5828 347.566 98.3742 347.261 99.0513C346.957 99.7241 346.525 100.238 345.966 100.594C345.408 100.949 344.756 101.127 344.011 101.127C343.283 101.127 342.638 100.949 342.075 100.594C341.512 100.234 341.074 99.7241 340.761 99.064C340.452 98.3996 340.294 97.6315 340.285 96.7598V96.0933C340.285 95.2046 340.44 94.4196 340.749 93.7383C341.057 93.057 341.493 92.5365 342.056 92.1768C342.623 91.8128 343.271 91.6309 343.999 91.6309C344.739 91.6309 345.391 91.8107 345.954 92.1704C346.521 92.5259 346.957 93.0443 347.261 93.7256C347.566 94.4027 347.718 95.1919 347.718 96.0933V96.6772ZM346.506 96.0806C346.506 94.9845 346.286 94.1445 345.846 93.5605C345.406 92.9723 344.79 92.6782 343.999 92.6782C343.228 92.6782 342.621 92.9723 342.177 93.5605C341.737 94.1445 341.51 94.957 341.498 95.998V96.6772C341.498 97.7394 341.72 98.5752 342.164 99.1846C342.613 99.7897 343.228 100.092 344.011 100.092C344.798 100.092 345.408 99.8066 345.839 99.2354C346.271 98.6598 346.493 97.8368 346.506 96.7661V96.0806Z" fill="#F0F0F0"/>
<path d="M214.297 138.728H210.292V142.003H214.944V143H209.073V133.758H214.881V134.761H210.292V137.731H214.297V138.728ZM219.185 138.88C218.139 138.58 217.378 138.212 216.899 137.776C216.425 137.336 216.188 136.794 216.188 136.151C216.188 135.423 216.478 134.822 217.058 134.348C217.642 133.87 218.4 133.631 219.331 133.631C219.965 133.631 220.53 133.754 221.025 133.999C221.525 134.244 221.91 134.583 222.181 135.015C222.456 135.446 222.593 135.918 222.593 136.43H221.368C221.368 135.872 221.19 135.434 220.835 135.116C220.479 134.795 219.978 134.634 219.331 134.634C218.73 134.634 218.26 134.767 217.921 135.034C217.587 135.296 217.42 135.662 217.42 136.132C217.42 136.508 217.579 136.828 217.896 137.09C218.218 137.348 218.761 137.585 219.527 137.801C220.298 138.017 220.898 138.256 221.33 138.519C221.766 138.777 222.088 139.079 222.295 139.426C222.507 139.773 222.612 140.182 222.612 140.651C222.612 141.4 222.32 142.001 221.736 142.454C221.152 142.903 220.372 143.127 219.394 143.127C218.759 143.127 218.167 143.006 217.617 142.765C217.067 142.52 216.641 142.185 216.341 141.762C216.045 141.339 215.896 140.859 215.896 140.321H217.122C217.122 140.88 217.327 141.322 217.737 141.648C218.152 141.97 218.704 142.13 219.394 142.13C220.037 142.13 220.53 141.999 220.873 141.737C221.216 141.474 221.387 141.117 221.387 140.664C221.387 140.211 221.229 139.862 220.911 139.617C220.594 139.367 220.018 139.122 219.185 138.88ZM230.566 134.761H227.595V143H226.383V134.761H223.418V133.758H230.566V134.761ZM236.533 140.588H232.661L231.791 143H230.534L234.063 133.758H235.13L238.666 143H237.415L236.533 140.588ZM233.029 139.585H236.171L234.597 135.262L233.029 139.585ZM245.47 134.761H242.5V143H241.287V134.761H238.323V133.758H245.47V134.761ZM253.348 133.758V140.042C253.343 140.914 253.068 141.627 252.522 142.181C251.981 142.736 251.244 143.047 250.313 143.114L249.99 143.127C248.978 143.127 248.172 142.854 247.571 142.308C246.97 141.762 246.666 141.011 246.657 140.055V133.758H247.863V140.017C247.863 140.685 248.047 141.206 248.416 141.578C248.784 141.946 249.308 142.13 249.99 142.13C250.68 142.13 251.206 141.946 251.57 141.578C251.938 141.21 252.123 140.692 252.123 140.023V133.758H253.348ZM258.661 139.261H256.49V143H255.265V133.758H258.324C259.365 133.758 260.165 133.995 260.724 134.469C261.286 134.943 261.568 135.632 261.568 136.538C261.568 137.114 261.411 137.615 261.098 138.042C260.789 138.47 260.358 138.789 259.803 139.001L261.974 142.924V143H260.667L258.661 139.261ZM256.49 138.265H258.362C258.967 138.265 259.448 138.108 259.803 137.795C260.163 137.482 260.343 137.063 260.343 136.538C260.343 135.967 260.171 135.529 259.829 135.224C259.49 134.919 258.999 134.765 258.356 134.761H256.49V138.265ZM268.385 140.588H264.513L263.644 143H262.387L265.916 133.758H266.982L270.518 143H269.268L268.385 140.588ZM264.881 139.585H268.023L266.449 135.262L264.881 139.585Z" fill="#F0F0F0"/>
<path d="M214.17 181.918H210.292V186H209.073V176.758H214.798V177.761H210.292V180.922H214.17V181.918ZM221.482 181.728H217.477V185.003H222.13V186H216.258V176.758H222.066V177.761H217.477V180.731H221.482V181.728ZM230.445 183.067C230.331 184.045 229.969 184.8 229.36 185.333C228.755 185.862 227.949 186.127 226.941 186.127C225.85 186.127 224.974 185.736 224.313 184.953C223.658 184.17 223.33 183.122 223.33 181.811V180.922C223.33 180.063 223.482 179.307 223.787 178.656C224.096 178.004 224.531 177.505 225.094 177.158C225.657 176.806 226.309 176.631 227.049 176.631C228.031 176.631 228.818 176.906 229.411 177.456C230.003 178.002 230.348 178.759 230.445 179.729H229.22C229.114 178.992 228.884 178.459 228.528 178.129C228.177 177.799 227.684 177.634 227.049 177.634C226.271 177.634 225.659 177.922 225.215 178.497C224.775 179.073 224.555 179.891 224.555 180.954V181.849C224.555 182.852 224.764 183.649 225.183 184.242C225.602 184.834 226.188 185.13 226.941 185.13C227.618 185.13 228.137 184.978 228.497 184.673C228.861 184.364 229.102 183.829 229.22 183.067H230.445ZM239.218 186H237.993V181.728H233.333V186H232.115V176.758H233.333V180.731H237.993V176.758H239.218V186ZM246.6 183.588H242.728L241.858 186H240.602L244.131 176.758H245.197L248.733 186H247.482L246.6 183.588ZM243.096 182.585H246.238L244.664 178.262L243.096 182.585ZM256.02 181.398L258.432 176.758H259.816L256.629 182.553V186H255.411V182.553L252.224 176.758H253.621L256.02 181.398ZM265.459 185.003H269.839V186H264.234V176.758H265.459V185.003ZM277.393 176.758V183.042C277.388 183.914 277.113 184.627 276.567 185.181C276.026 185.736 275.289 186.047 274.358 186.114L274.035 186.127C273.023 186.127 272.217 185.854 271.616 185.308C271.015 184.762 270.711 184.011 270.702 183.055V176.758H271.908V183.017C271.908 183.685 272.092 184.206 272.46 184.578C272.829 184.946 273.353 185.13 274.035 185.13C274.724 185.13 275.251 184.946 275.615 184.578C275.983 184.21 276.167 183.692 276.167 183.023V176.758H277.393ZM286.14 184.788C285.826 185.236 285.389 185.573 284.826 185.797C284.267 186.017 283.615 186.127 282.871 186.127C282.117 186.127 281.449 185.951 280.865 185.6C280.281 185.245 279.828 184.741 279.506 184.089C279.189 183.438 279.026 182.682 279.018 181.823V181.017C279.018 179.625 279.341 178.546 279.989 177.78C280.64 177.014 281.555 176.631 282.731 176.631C283.696 176.631 284.472 176.878 285.061 177.374C285.649 177.864 286.008 178.563 286.14 179.468H284.921C284.692 178.245 283.965 177.634 282.737 177.634C281.921 177.634 281.301 177.922 280.877 178.497C280.458 179.068 280.247 179.898 280.243 180.985V181.741C280.243 182.778 280.48 183.603 280.954 184.216C281.428 184.826 282.069 185.13 282.877 185.13C283.334 185.13 283.734 185.08 284.077 184.978C284.419 184.876 284.703 184.705 284.927 184.464V182.388H282.788V181.398H286.14V184.788ZM293.281 183.588H289.409L288.539 186H287.282L290.812 176.758H291.878L295.414 186H294.163L293.281 183.588ZM289.777 182.585H292.919L291.345 178.262L289.777 182.585ZM300.047 182.261H297.876V186H296.651V176.758H299.711C300.752 176.758 301.552 176.995 302.11 177.469C302.673 177.943 302.955 178.632 302.955 179.538C302.955 180.114 302.798 180.615 302.485 181.042C302.176 181.47 301.744 181.789 301.19 182.001L303.361 185.924V186H302.053L300.047 182.261ZM297.876 181.265H299.749C300.354 181.265 300.834 181.108 301.19 180.795C301.55 180.482 301.729 180.063 301.729 179.538C301.729 178.967 301.558 178.529 301.215 178.224C300.877 177.919 300.386 177.765 299.743 177.761H297.876V181.265ZM307.893 186V176.758H310.502C311.306 176.758 312.017 176.936 312.635 177.291C313.253 177.646 313.729 178.152 314.063 178.808C314.402 179.464 314.573 180.217 314.577 181.068V181.658C314.577 182.53 314.408 183.294 314.069 183.95C313.735 184.606 313.255 185.109 312.628 185.46C312.006 185.812 311.281 185.992 310.451 186H307.893ZM309.112 177.761V185.003H310.394C311.333 185.003 312.063 184.711 312.584 184.127C313.109 183.543 313.371 182.712 313.371 181.633V181.093C313.371 180.044 313.124 179.229 312.628 178.649C312.138 178.065 311.439 177.769 310.534 177.761H309.112ZM321.648 181.728H317.643V185.003H322.296V186H316.424V176.758H322.232V177.761H317.643V180.731H321.648V181.728ZM332.262 181.728H328.256V185.003H332.909V186H327.038V176.758H332.846V177.761H328.256V180.731H332.262V181.728ZM337.441 180.3L339.657 176.758H341.091L338.171 181.341L341.161 186H339.714L337.441 182.395L335.156 186H333.715L336.711 181.341L333.785 176.758H335.213L337.441 180.3ZM343.795 182.382V186H342.577V176.758H345.985C346.997 176.758 347.788 177.016 348.359 177.532C348.935 178.049 349.223 178.732 349.223 179.583C349.223 180.48 348.941 181.172 348.378 181.658C347.82 182.141 347.018 182.382 345.973 182.382H343.795ZM343.795 181.385H345.985C346.637 181.385 347.136 181.233 347.483 180.928C347.83 180.619 348.004 180.175 348.004 179.595C348.004 179.045 347.83 178.605 347.483 178.275C347.136 177.945 346.66 177.773 346.055 177.761H343.795V181.385ZM356.002 181.728H351.997V185.003H356.649V186H350.778V176.758H356.586V177.761H351.997V180.731H356.002V181.728ZM358.167 186V176.758H360.775C361.579 176.758 362.29 176.936 362.908 177.291C363.526 177.646 364.002 178.152 364.336 178.808C364.675 179.464 364.846 180.217 364.851 181.068V181.658C364.851 182.53 364.681 183.294 364.343 183.95C364.008 184.606 363.528 185.109 362.902 185.46C362.28 185.812 361.554 185.992 360.725 186H358.167ZM359.385 177.761V185.003H360.667C361.607 185.003 362.337 184.711 362.857 184.127C363.382 183.543 363.645 182.712 363.645 181.633V181.093C363.645 180.044 363.397 179.229 362.902 178.649C362.411 178.065 361.713 177.769 360.807 177.761H359.385ZM368.005 186H366.787V176.758H368.005V186ZM377.038 183.067C376.924 184.045 376.562 184.8 375.953 185.333C375.347 185.862 374.541 186.127 373.534 186.127C372.442 186.127 371.566 185.736 370.906 184.953C370.25 184.17 369.922 183.122 369.922 181.811V180.922C369.922 180.063 370.075 179.307 370.379 178.656C370.688 178.004 371.124 177.505 371.687 177.158C372.25 176.806 372.902 176.631 373.642 176.631C374.624 176.631 375.411 176.906 376.003 177.456C376.596 178.002 376.941 178.759 377.038 179.729H375.813C375.707 178.992 375.477 178.459 375.121 178.129C374.77 177.799 374.277 177.634 373.642 177.634C372.863 177.634 372.252 177.922 371.808 178.497C371.368 179.073 371.147 179.891 371.147 180.954V181.849C371.147 182.852 371.357 183.649 371.776 184.242C372.195 184.834 372.781 185.13 373.534 185.13C374.211 185.13 374.73 184.978 375.089 184.673C375.453 184.364 375.694 183.829 375.813 183.067H377.038ZM380.015 186H378.796V176.758H380.015V186ZM389.359 181.677C389.359 182.583 389.207 183.374 388.902 184.051C388.597 184.724 388.166 185.238 387.607 185.594C387.048 185.949 386.397 186.127 385.652 186.127C384.924 186.127 384.279 185.949 383.716 185.594C383.153 185.234 382.715 184.724 382.402 184.064C382.093 183.4 381.934 182.632 381.926 181.76V181.093C381.926 180.205 382.08 179.42 382.389 178.738C382.698 178.057 383.134 177.536 383.697 177.177C384.264 176.813 384.911 176.631 385.639 176.631C386.38 176.631 387.031 176.811 387.594 177.17C388.161 177.526 388.597 178.044 388.902 178.726C389.207 179.403 389.359 180.192 389.359 181.093V181.677ZM388.146 181.081C388.146 179.985 387.926 179.145 387.486 178.561C387.046 177.972 386.431 177.678 385.639 177.678C384.869 177.678 384.262 177.972 383.817 178.561C383.377 179.145 383.151 179.957 383.138 180.998V181.677C383.138 182.739 383.36 183.575 383.805 184.185C384.253 184.79 384.869 185.092 385.652 185.092C386.439 185.092 387.048 184.807 387.48 184.235C387.912 183.66 388.134 182.837 388.146 181.766V181.081ZM398.29 186H397.065L392.412 178.878V186H391.187V176.758H392.412L397.078 183.912V176.758H398.29V186Z" fill="#F0F0F0"/>
<path d="M331.896 141.788C331.583 142.236 331.145 142.573 330.583 142.797C330.024 143.017 329.372 143.127 328.627 143.127C327.874 143.127 327.206 142.951 326.622 142.6C326.038 142.245 325.585 141.741 325.263 141.089C324.946 140.438 324.783 139.682 324.774 138.823V138.017C324.774 136.625 325.098 135.546 325.746 134.78C326.397 134.014 327.311 133.631 328.488 133.631C329.453 133.631 330.229 133.878 330.817 134.374C331.406 134.864 331.765 135.563 331.896 136.468H330.678C330.449 135.245 329.721 134.634 328.494 134.634C327.677 134.634 327.057 134.922 326.634 135.497C326.215 136.068 326.004 136.898 326 137.985V138.741C326 139.778 326.236 140.603 326.71 141.216C327.184 141.826 327.826 142.13 328.634 142.13C329.091 142.13 329.491 142.08 329.833 141.978C330.176 141.876 330.46 141.705 330.684 141.464V139.388H328.545V138.398H331.896V141.788ZM333.775 142.384C333.775 142.181 333.835 142.012 333.953 141.876C334.076 141.741 334.258 141.673 334.499 141.673C334.74 141.673 334.922 141.741 335.045 141.876C335.172 142.012 335.235 142.181 335.235 142.384C335.235 142.579 335.172 142.742 335.045 142.873C334.922 143.004 334.74 143.07 334.499 143.07C334.258 143.07 334.076 143.004 333.953 142.873C333.835 142.742 333.775 142.579 333.775 142.384ZM340.085 138.88C339.04 138.58 338.278 138.212 337.8 137.776C337.326 137.336 337.089 136.794 337.089 136.151C337.089 135.423 337.379 134.822 337.958 134.348C338.542 133.87 339.3 133.631 340.231 133.631C340.866 133.631 341.431 133.754 341.926 133.999C342.425 134.244 342.81 134.583 343.081 135.015C343.356 135.446 343.494 135.918 343.494 136.43H342.269C342.269 135.872 342.091 135.434 341.735 135.116C341.38 134.795 340.878 134.634 340.231 134.634C339.63 134.634 339.16 134.767 338.822 135.034C338.487 135.296 338.32 135.662 338.32 136.132C338.32 136.508 338.479 136.828 338.796 137.09C339.118 137.348 339.662 137.585 340.428 137.801C341.198 138.017 341.799 138.256 342.23 138.519C342.666 138.777 342.988 139.079 343.195 139.426C343.407 139.773 343.513 140.182 343.513 140.651C343.513 141.4 343.221 142.001 342.637 142.454C342.053 142.903 341.272 143.127 340.294 143.127C339.66 143.127 339.067 143.006 338.517 142.765C337.967 142.52 337.542 142.185 337.241 141.762C336.945 141.339 336.797 140.859 336.797 140.321H338.022C338.022 140.88 338.227 141.322 338.638 141.648C339.052 141.97 339.605 142.13 340.294 142.13C340.938 142.13 341.431 141.999 341.773 141.737C342.116 141.474 342.288 141.117 342.288 140.664C342.288 140.211 342.129 139.862 341.812 139.617C341.494 139.367 340.919 139.122 340.085 138.88ZM344.922 142.384C344.922 142.181 344.981 142.012 345.1 141.876C345.222 141.741 345.404 141.673 345.646 141.673C345.887 141.673 346.069 141.741 346.191 141.876C346.318 142.012 346.382 142.181 346.382 142.384C346.382 142.579 346.318 142.742 346.191 142.873C346.069 143.004 345.887 143.07 345.646 143.07C345.404 143.07 345.222 143.004 345.1 142.873C344.981 142.742 344.922 142.579 344.922 142.384ZM355.123 139.261H352.952V143H351.727V133.758H354.786C355.827 133.758 356.627 133.995 357.186 134.469C357.748 134.943 358.03 135.632 358.03 136.538C358.03 137.114 357.873 137.615 357.56 138.042C357.251 138.47 356.819 138.789 356.265 139.001L358.436 142.924V143H357.128L355.123 139.261ZM352.952 138.265H354.824C355.429 138.265 355.91 138.108 356.265 137.795C356.625 137.482 356.805 137.063 356.805 136.538C356.805 135.967 356.633 135.529 356.291 135.224C355.952 134.919 355.461 134.765 354.818 134.761H352.952V138.265ZM366.847 143H365.622V138.728H360.962V143H359.744V133.758H360.962V137.731H365.622V133.758H366.847V143Z" fill="#F0F0F0"/>
<path d="M422.796 138.88C421.751 138.58 420.989 138.212 420.511 137.776C420.037 137.336 419.8 136.794 419.8 136.151C419.8 135.423 420.09 134.822 420.669 134.348C421.253 133.87 422.011 133.631 422.942 133.631C423.577 133.631 424.142 133.754 424.637 133.999C425.136 134.244 425.521 134.583 425.792 135.015C426.067 135.446 426.205 135.918 426.205 136.43H424.979C424.979 135.872 424.802 135.434 424.446 135.116C424.091 134.795 423.589 134.634 422.942 134.634C422.341 134.634 421.871 134.767 421.533 135.034C421.198 135.296 421.031 135.662 421.031 136.132C421.031 136.508 421.19 136.828 421.507 137.09C421.829 137.348 422.373 137.585 423.139 137.801C423.909 138.017 424.51 138.256 424.941 138.519C425.377 138.777 425.699 139.079 425.906 139.426C426.118 139.773 426.224 140.182 426.224 140.651C426.224 141.4 425.932 142.001 425.348 142.454C424.764 142.903 423.983 143.127 423.005 143.127C422.371 143.127 421.778 143.006 421.228 142.765C420.678 142.52 420.253 142.185 419.952 141.762C419.656 141.339 419.508 140.859 419.508 140.321H420.733C420.733 140.88 420.938 141.322 421.349 141.648C421.763 141.97 422.316 142.13 423.005 142.13C423.649 142.13 424.142 141.999 424.484 141.737C424.827 141.474 424.999 141.117 424.999 140.664C424.999 140.211 424.84 139.862 424.522 139.617C424.205 139.367 423.63 139.122 422.796 138.88ZM433.016 138.728H429.01V142.003H433.663V143H427.792V133.758H433.6V134.761H429.01V137.731H433.016V138.728ZM438.195 137.3L440.411 133.758H441.845L438.925 138.341L441.915 143H440.468L438.195 139.395L435.91 143H434.469L437.465 138.341L434.539 133.758H435.967L438.195 137.3ZM450.275 138.677C450.275 139.583 450.123 140.374 449.818 141.051C449.513 141.724 449.082 142.238 448.523 142.594C447.964 142.949 447.313 143.127 446.568 143.127C445.84 143.127 445.195 142.949 444.632 142.594C444.069 142.234 443.631 141.724 443.318 141.064C443.009 140.4 442.85 139.632 442.842 138.76V138.093C442.842 137.205 442.996 136.42 443.305 135.738C443.614 135.057 444.05 134.536 444.613 134.177C445.18 133.813 445.827 133.631 446.555 133.631C447.296 133.631 447.947 133.811 448.51 134.17C449.077 134.526 449.513 135.044 449.818 135.726C450.123 136.403 450.275 137.192 450.275 138.093V138.677ZM449.062 138.081C449.062 136.985 448.842 136.145 448.402 135.561C447.962 134.972 447.347 134.678 446.555 134.678C445.785 134.678 445.178 134.972 444.733 135.561C444.293 136.145 444.067 136.957 444.054 137.998V138.677C444.054 139.739 444.276 140.575 444.721 141.185C445.169 141.79 445.785 142.092 446.568 142.092C447.355 142.092 447.964 141.807 448.396 141.235C448.828 140.66 449.05 139.837 449.062 138.766V138.081Z" fill="#F0F0F0"/>
<rect x="2" y="2" width="556" height="359" stroke="#F0F0F0" stroke-width="4"/>
<rect x="9" y="13" width="168" height="196" stroke="#F0F0F0" stroke-width="4"/>
<rect x="32" y="232" width="494" height="110" stroke="#F0F0F0" stroke-width="2"/>
<path d="M420.778 127.643C420.778 127.145 420.603 126.764 420.251 126.5C419.899 126.23 419.267 125.949 418.353 125.656C417.438 125.357 416.715 125.064 416.182 124.777C414.729 123.992 414.002 122.935 414.002 121.604C414.002 120.913 414.195 120.298 414.582 119.759C414.975 119.214 415.534 118.789 416.261 118.484C416.993 118.18 417.813 118.027 418.722 118.027C419.636 118.027 420.45 118.194 421.165 118.528C421.88 118.856 422.434 119.322 422.826 119.926C423.225 120.529 423.424 121.215 423.424 121.982H420.787C420.787 121.396 420.603 120.942 420.233 120.62C419.864 120.292 419.346 120.128 418.678 120.128C418.033 120.128 417.532 120.266 417.175 120.541C416.817 120.811 416.639 121.168 416.639 121.613C416.639 122.029 416.847 122.378 417.263 122.659C417.685 122.94 418.303 123.204 419.117 123.45C420.617 123.901 421.71 124.461 422.396 125.129C423.081 125.797 423.424 126.629 423.424 127.625C423.424 128.732 423.005 129.603 422.167 130.235C421.329 130.862 420.201 131.176 418.783 131.176C417.799 131.176 416.902 130.997 416.094 130.64C415.285 130.276 414.667 129.781 414.239 129.154C413.817 128.527 413.606 127.801 413.606 126.975H416.252C416.252 128.387 417.096 129.093 418.783 129.093C419.41 129.093 419.899 128.967 420.251 128.715C420.603 128.457 420.778 128.1 420.778 127.643ZM432.916 125.454H427.854V128.882H433.795V131H425.217V118.203H433.777V120.339H427.854V123.389H432.916V125.454ZM439.921 122.615L442.32 118.203H445.353L441.626 124.549L445.449 131H442.382L439.921 126.518L437.46 131H434.393L438.216 124.549L434.489 118.203H437.521L439.921 122.615ZM457.068 124.892C457.068 126.151 456.846 127.256 456.4 128.205C455.955 129.154 455.316 129.887 454.484 130.402C453.658 130.918 452.709 131.176 451.637 131.176C450.576 131.176 449.63 130.921 448.798 130.411C447.966 129.901 447.321 129.175 446.864 128.231C446.407 127.282 446.176 126.192 446.17 124.962V124.329C446.17 123.069 446.396 121.962 446.847 121.007C447.304 120.046 447.945 119.311 448.771 118.801C449.604 118.285 450.553 118.027 451.619 118.027C452.686 118.027 453.632 118.285 454.458 118.801C455.29 119.311 455.932 120.046 456.383 121.007C456.84 121.962 457.068 123.066 457.068 124.32V124.892ZM454.396 124.312C454.396 122.97 454.156 121.95 453.676 121.253C453.195 120.556 452.51 120.207 451.619 120.207C450.734 120.207 450.052 120.553 449.571 121.244C449.091 121.93 448.848 122.938 448.842 124.268V124.892C448.842 126.198 449.082 127.212 449.562 127.933C450.043 128.653 450.734 129.014 451.637 129.014C452.521 129.014 453.201 128.668 453.676 127.977C454.15 127.279 454.391 126.266 454.396 124.936V124.312Z" fill="#F0F0F0"/>
<path d="M326.268 129.383C325.793 129.951 325.122 130.394 324.255 130.71C323.388 131.021 322.427 131.176 321.372 131.176C320.265 131.176 319.292 130.936 318.454 130.455C317.622 129.969 316.978 129.266 316.521 128.346C316.069 127.426 315.838 126.345 315.826 125.103V124.232C315.826 122.955 316.04 121.851 316.468 120.919C316.901 119.981 317.522 119.267 318.331 118.774C319.146 118.276 320.098 118.027 321.188 118.027C322.705 118.027 323.892 118.391 324.747 119.117C325.603 119.838 326.109 120.89 326.268 122.272H323.701C323.584 121.54 323.323 121.004 322.919 120.664C322.521 120.324 321.97 120.154 321.267 120.154C320.37 120.154 319.688 120.491 319.219 121.165C318.75 121.839 318.513 122.841 318.507 124.171V124.988C318.507 126.33 318.762 127.344 319.271 128.029C319.781 128.715 320.528 129.058 321.513 129.058C322.503 129.058 323.209 128.847 323.631 128.425V126.219H321.231V124.276H326.268V129.383ZM328.377 129.752C328.377 129.348 328.512 129.02 328.781 128.768C329.057 128.516 329.399 128.39 329.81 128.39C330.226 128.39 330.568 128.516 330.838 128.768C331.113 129.02 331.251 129.348 331.251 129.752C331.251 130.15 331.116 130.476 330.847 130.728C330.577 130.974 330.231 131.097 329.81 131.097C329.394 131.097 329.051 130.974 328.781 130.728C328.512 130.476 328.377 130.15 328.377 129.752ZM340.286 127.643C340.286 127.145 340.11 126.764 339.759 126.5C339.407 126.23 338.774 125.949 337.86 125.656C336.946 125.357 336.223 125.064 335.689 124.777C334.236 123.992 333.51 122.935 333.51 121.604C333.51 120.913 333.703 120.298 334.09 119.759C334.482 119.214 335.042 118.789 335.769 118.484C336.501 118.18 337.321 118.027 338.229 118.027C339.144 118.027 339.958 118.194 340.673 118.528C341.388 118.856 341.941 119.322 342.334 119.926C342.732 120.529 342.932 121.215 342.932 121.982H340.295C340.295 121.396 340.11 120.942 339.741 120.62C339.372 120.292 338.854 120.128 338.186 120.128C337.541 120.128 337.04 120.266 336.683 120.541C336.325 120.811 336.146 121.168 336.146 121.613C336.146 122.029 336.354 122.378 336.771 122.659C337.192 122.94 337.811 123.204 338.625 123.45C340.125 123.901 341.218 124.461 341.903 125.129C342.589 125.797 342.932 126.629 342.932 127.625C342.932 128.732 342.513 129.603 341.675 130.235C340.837 130.862 339.709 131.176 338.291 131.176C337.307 131.176 336.41 130.997 335.602 130.64C334.793 130.276 334.175 129.781 333.747 129.154C333.325 128.527 333.114 127.801 333.114 126.975H335.76C335.76 128.387 336.604 129.093 338.291 129.093C338.918 129.093 339.407 128.967 339.759 128.715C340.11 128.457 340.286 128.1 340.286 127.643ZM344.689 129.752C344.689 129.348 344.824 129.02 345.094 128.768C345.369 128.516 345.712 128.39 346.122 128.39C346.538 128.39 346.881 128.516 347.15 128.768C347.426 129.02 347.563 129.348 347.563 129.752C347.563 130.15 347.429 130.476 347.159 130.728C346.89 130.974 346.544 131.097 346.122 131.097C345.706 131.097 345.363 130.974 345.094 130.728C344.824 130.476 344.689 130.15 344.689 129.752ZM359.183 126.315H357.082V131H354.445V118.203H359.2C360.712 118.203 361.878 118.54 362.698 119.214C363.519 119.888 363.929 120.84 363.929 122.07C363.929 122.943 363.738 123.673 363.357 124.259C362.982 124.839 362.411 125.302 361.644 125.647L364.412 130.877V131H361.582L359.183 126.315ZM357.082 124.18H359.209C359.871 124.18 360.384 124.013 360.747 123.679C361.11 123.339 361.292 122.873 361.292 122.281C361.292 121.678 361.119 121.203 360.773 120.857C360.434 120.512 359.909 120.339 359.2 120.339H357.082V124.18ZM376.356 131H373.72V125.516H368.578V131H365.941V118.203H368.578V123.389H373.72V118.203H376.356V131Z" fill="#F0F0F0"/>
<path d="M226.722 122.615L229.121 118.203H232.153L228.427 124.549L232.25 131H229.183L226.722 126.518L224.261 131H221.193L225.017 124.549L221.29 118.203H224.322L226.722 122.615ZM233.551 129.752C233.551 129.348 233.686 129.02 233.955 128.768C234.23 128.516 234.573 128.39 234.983 128.39C235.399 128.39 235.742 128.516 236.012 128.768C236.287 129.02 236.425 129.348 236.425 129.752C236.425 130.15 236.29 130.476 236.021 130.728C235.751 130.974 235.405 131.097 234.983 131.097C234.567 131.097 234.225 130.974 233.955 130.728C233.686 130.476 233.551 130.15 233.551 129.752ZM243.403 122.615L245.803 118.203H248.835L245.108 124.549L248.932 131H245.864L243.403 126.518L240.942 131H237.875L241.698 124.549L237.972 118.203H241.004L243.403 122.615Z" fill="#F0F0F0"/>
<path d="M211.143 171V158.203H215.08C216.205 158.203 217.21 158.458 218.095 158.968C218.985 159.472 219.68 160.192 220.178 161.13C220.676 162.062 220.925 163.122 220.925 164.312V164.9C220.925 166.09 220.679 167.147 220.187 168.073C219.7 168.999 219.012 169.717 218.121 170.227C217.23 170.736 216.226 170.994 215.106 171H211.143ZM213.779 160.339V168.882H215.054C216.085 168.882 216.873 168.545 217.418 167.871C217.963 167.197 218.241 166.233 218.253 164.979V164.303C218.253 163.002 217.983 162.018 217.444 161.35C216.905 160.676 216.117 160.339 215.08 160.339H213.779ZM222.85 171V158.203H226.787C227.912 158.203 228.917 158.458 229.802 158.968C230.692 159.472 231.387 160.192 231.885 161.13C232.383 162.062 232.632 163.122 232.632 164.312V164.9C232.632 166.09 232.386 167.147 231.894 168.073C231.407 168.999 230.719 169.717 229.828 170.227C228.938 170.736 227.933 170.994 226.813 171H222.85ZM225.486 160.339V168.882H226.761C227.792 168.882 228.58 168.545 229.125 167.871C229.67 167.197 229.948 166.233 229.96 164.979V164.303C229.96 163.002 229.69 162.018 229.151 161.35C228.612 160.676 227.824 160.339 226.787 160.339H225.486ZM239.329 166.544H234.381V164.496H239.329V166.544ZM244.98 158.203L248.268 167.484L251.537 158.203H255V171H252.354V167.502L252.618 161.464L249.164 171H247.354L243.908 161.473L244.172 167.502V171H241.535V158.203H244.98ZM260.748 158.203L264.035 167.484L267.305 158.203H270.768V171H268.122V167.502L268.386 161.464L264.932 171H263.121L259.676 161.473L259.939 167.502V171H257.303V158.203H260.748ZM277.843 166.544H272.895V164.496H277.843V166.544ZM284.461 163.969L287.124 158.203H290.007L285.806 166.359V171H283.125V166.359L278.924 158.203H281.815L284.461 163.969ZM295.746 163.969L298.409 158.203H301.292L297.091 166.359V171H294.41V166.359L290.209 158.203H293.101L295.746 163.969ZM307.031 163.969L309.694 158.203H312.577L308.376 166.359V171H305.695V166.359L301.494 158.203H304.386L307.031 163.969ZM318.316 163.969L320.979 158.203H323.862L319.661 166.359V171H316.98V166.359L312.779 158.203H315.671L318.316 163.969ZM339.56 166.737C339.46 168.114 338.95 169.198 338.03 169.989C337.116 170.78 335.909 171.176 334.409 171.176C332.769 171.176 331.477 170.625 330.533 169.523C329.596 168.416 329.127 166.898 329.127 164.971V164.188C329.127 162.958 329.344 161.874 329.777 160.937C330.211 159.999 330.829 159.281 331.632 158.783C332.44 158.279 333.378 158.027 334.444 158.027C335.921 158.027 337.11 158.423 338.013 159.214C338.915 160.005 339.437 161.115 339.577 162.545H336.94C336.876 161.719 336.645 161.121 336.246 160.752C335.854 160.377 335.253 160.189 334.444 160.189C333.565 160.189 332.906 160.506 332.467 161.139C332.033 161.766 331.811 162.741 331.799 164.065V165.032C331.799 166.415 332.007 167.426 332.423 168.064C332.845 168.703 333.507 169.022 334.409 169.022C335.224 169.022 335.83 168.838 336.229 168.469C336.633 168.094 336.864 167.517 336.923 166.737H339.56ZM344.095 171H341.458V158.203H344.095V171ZM356.232 158.203V166.632C356.232 168.032 355.793 169.14 354.914 169.954C354.041 170.769 352.846 171.176 351.328 171.176C349.834 171.176 348.647 170.78 347.769 169.989C346.89 169.198 346.441 168.111 346.424 166.729V158.203H349.061V166.649C349.061 167.487 349.26 168.1 349.658 168.486C350.062 168.867 350.619 169.058 351.328 169.058C352.811 169.058 353.563 168.278 353.587 166.72V158.203H356.232ZM358.395 171V158.203H362.332C363.457 158.203 364.462 158.458 365.347 158.968C366.237 159.472 366.932 160.192 367.43 161.13C367.928 162.062 368.177 163.122 368.177 164.312V164.9C368.177 166.09 367.931 167.147 367.438 168.073C366.952 168.999 366.264 169.717 365.373 170.227C364.482 170.736 363.478 170.994 362.358 171H358.395ZM361.031 160.339V168.882H362.306C363.337 168.882 364.125 168.545 364.67 167.871C365.215 167.197 365.493 166.233 365.505 164.979V164.303C365.505 163.002 365.235 162.018 364.696 161.35C364.157 160.676 363.369 160.339 362.332 160.339H361.031ZM377.133 168.363H372.51L371.631 171H368.827L373.591 158.203H376.034L380.824 171H378.021L377.133 168.363ZM373.222 166.228H376.421L374.812 161.438L373.222 166.228ZM382.02 171V158.203H385.957C387.082 158.203 388.087 158.458 388.972 158.968C389.862 159.472 390.557 160.192 391.055 161.13C391.553 162.062 391.802 163.122 391.802 164.312V164.9C391.802 166.09 391.556 167.147 391.063 168.073C390.577 168.999 389.889 169.717 388.998 170.227C388.107 170.736 387.103 170.994 385.983 171H382.02ZM384.656 160.339V168.882H385.931C386.962 168.882 387.75 168.545 388.295 167.871C388.84 167.197 389.118 166.233 389.13 164.979V164.303C389.13 163.002 388.86 162.018 388.321 161.35C387.782 160.676 386.994 160.339 385.957 160.339H384.656Z" fill="#F0F0F0"/>
<path d="M44.4971 236.579H66.4856V329.421H44.4971V236.579ZM69.2342 329.421H71.9828V236.579H69.2342V329.421ZM74.7314 329.421H77.4799V236.579H74.7314V329.421ZM80.2285 329.421H82.9771V236.579H80.2285V329.421ZM91.2228 329.421H102.217V325.553H104.966V321.684H102.217V313.948H99.4685V317.816H96.7199V321.684H93.9714V313.948H99.4685V310.079H102.217V294.605H99.4685V283H107.714V279.132H104.966V275.263H102.217V279.132H99.4685V275.263H96.7199V271.395H99.4685V275.263H102.217V271.395H107.714V263.658H113.211V267.526H115.96V259.79H118.708V263.658H129.703V259.79H121.457V255.921H113.211V252.053H110.463V248.184H107.714V252.053H104.966V244.316H102.217V248.184H99.4685V244.316H102.217V240.448H99.4685V236.579H91.2228V329.421ZM96.7199 244.316V248.184H93.9714V244.316H96.7199ZM96.7199 252.053V255.921H93.9714V252.053H96.7199ZM102.217 252.053V255.921H99.4685V252.053H102.217ZM104.966 255.921V267.526H102.217V263.658H99.4685V259.79H102.217V255.921H104.966ZM110.463 255.921V259.79H107.714V255.921H110.463ZM96.7199 259.79V263.658H93.9714V259.79H96.7199ZM96.7199 283V286.869H93.9714V283H96.7199ZM96.7199 290.737V294.605H93.9714V290.737H96.7199ZM102.217 240.448H104.966V236.579H102.217V240.448ZM107.714 240.448H110.463V236.579H107.714V240.448ZM118.708 240.448H121.457V244.316H115.96V240.448H110.463V244.316H113.211V248.184H115.96V252.053H118.708V248.184H121.457V255.921H124.206V252.053H135.2V248.184H124.206V244.316H126.954V236.579H118.708V240.448ZM137.948 329.421H140.697V317.816H143.446V313.948H140.697V310.079H146.194V306.211H148.943V310.079H146.194V313.948H151.691V302.342H148.943V298.474H140.697V290.737H146.194V283H140.697V279.132H146.194V271.395H148.943V267.526H146.194V259.79H140.697V255.921H146.194V248.184H143.446V252.053H140.697V236.579H137.948V329.421ZM143.446 302.342V306.211H140.697V302.342H143.446ZM143.446 244.316H146.194V248.184H151.691V240.448H146.194V236.579H143.446V244.316ZM154.44 255.921H148.943V263.658H151.691V271.395H154.44V279.132H159.937V275.263H162.686V271.395H159.937V267.526H154.44V259.79H157.188V263.658H159.937V255.921H157.188V252.053H162.686V248.184H159.937V240.448H157.188V236.579H154.44V255.921ZM168.183 240.448H165.434V244.316H170.931V248.184H165.434V252.053H162.686V263.658H165.434V267.526H168.183V286.869H162.686V290.737H168.183V294.605H162.686V298.474H168.183V306.211H170.931V310.079H176.428V313.948H179.177V306.211H176.428V302.342H170.931V283H179.177V279.132H170.931V271.395H179.177V275.263H181.926V267.526H179.177V263.658H176.428V267.526H170.931V263.658H168.183V259.79H165.434V255.921H168.183V252.053H173.68V248.184H181.926V240.448H170.931V236.579H168.183V240.448ZM184.674 329.421H190.171V325.553H187.423V321.684H190.171V325.553H195.668V321.684H192.92V317.816H190.171V306.211H187.423V302.342H195.668V306.211H192.92V310.079H195.668V317.816H198.417V321.684H201.166V317.816H203.914V313.948H206.663V317.816H203.914V325.553H198.417V329.421H209.411V325.553H212.16V329.421H214.908V325.553H217.657V321.684H220.406V325.553H223.154V321.684H228.651V317.816H225.903V313.948H220.406V310.079H223.154V306.211H220.406V302.342H214.908V306.211H217.657V310.079H214.908V313.948H217.657V317.816H214.908V321.684H212.16V317.816H209.411V313.948H212.16V302.342H214.908V298.474H209.411V306.211H206.663V310.079H201.166V313.948H198.417V306.211H203.914V302.342H206.663V298.474H209.411V294.605H203.914V298.474H201.166V302.342H198.417V298.474H195.668V294.605H203.914V290.737H192.92V294.605H190.171V298.474H187.423V290.737H190.171V286.869H187.423V283H190.171V279.132H187.423V271.395H190.171V267.526H187.423V263.658H190.171V255.921H192.92V252.053H190.171V244.316H192.92V236.579H184.674V329.421ZM195.668 244.316H192.92V248.184H195.668V259.79H198.417V263.658H203.914V259.79H209.411V255.921H206.663V252.053H203.914V248.184H201.166V244.316H198.417V240.448H201.166V244.316H206.663V240.448H203.914V236.579H195.668V244.316ZM201.166 252.053V255.921H198.417V252.053H201.166ZM206.663 240.448H212.16V236.579H206.663V240.448ZM217.657 240.448H223.154V236.579H217.657V240.448ZM231.4 329.421H234.148V325.553H242.394V317.816H245.143V321.684H247.891V317.816H250.64V313.948H261.634V306.211H267.131V310.079H272.628V313.948H269.88V317.816H267.131V313.948H264.383V321.684H267.131V325.553H261.634V321.684H258.886V317.816H256.137V325.553H258.886V329.421H269.88V325.553H272.628V321.684H275.377V306.211H272.628V298.474H275.377V290.737H272.628V286.869H269.88V290.737H264.383V286.869H269.88V279.132H264.383V283H261.634V286.869H256.137V283H253.388V290.737H256.137V298.474H247.891V302.342H250.64V306.211H253.388V310.079H247.891V313.948H242.394V310.079H245.143V306.211H242.394V298.474H239.646V294.605H236.897V286.869H239.646V283H247.891V279.132H245.143V275.263H239.646V279.132H236.897V275.263H234.148V259.79H242.394V263.658H236.897V267.526H245.143V271.395H247.891V263.658H245.143V259.79H247.891V252.053H250.64V248.184H247.891V244.316H245.143V236.579H231.4V329.421ZM239.646 240.448V244.316H234.148V240.448H239.646ZM239.646 248.184V252.053H236.897V248.184H239.646ZM236.897 252.053V255.921H234.148V252.053H236.897ZM261.634 290.737V294.605H269.88V298.474H267.131V302.342H264.383V298.474H258.886V290.737H261.634ZM236.897 298.474V302.342H239.646V310.079H236.897V306.211H234.148V298.474H236.897ZM258.886 302.342V306.211H256.137V302.342H258.886ZM236.897 310.079V313.948H234.148V310.079H236.897ZM239.646 313.948V317.816H236.897V313.948H239.646ZM247.891 240.448H250.64V248.184H253.388V236.579H247.891V240.448ZM256.137 248.184H253.388V252.053H258.886V255.921H256.137V259.79H258.886V263.658H261.634V244.316H269.88V252.053H264.383V255.921H269.88V259.79H272.628V255.921H275.377V252.053H272.628V236.579H261.634V240.448H258.886V236.579H256.137V248.184ZM278.126 329.421H283.623V310.079H280.874V306.211H283.623V302.342H286.371V310.079H289.12V306.211H291.868V310.079H294.617V313.948H291.868V310.079H289.12V317.816H291.868V321.684H289.12V325.553H286.371V329.421H294.617V321.684H297.366V313.948H302.863V310.079H297.366V306.211H294.617V302.342H289.12V298.474H286.371V294.605H289.12V290.737H291.868V294.605H294.617V298.474H297.366V306.211H300.114V302.342H302.863V294.605H305.611V298.474H311.108V294.605H308.36V290.737H302.863V286.869H300.114V290.737H297.366V286.869H300.114V283H297.366V279.132H302.863V286.869H305.611V283H311.108V286.869H308.36V290.737H311.108V294.605H313.857V290.737H316.606V286.869H319.354V283H316.606V279.132H319.354V283H322.103V275.263H316.606V267.526H311.108V263.658H305.611V267.526H308.36V271.395H311.108V275.263H313.857V279.132H305.611V275.263H302.863V267.526H300.114V271.395H297.366V275.263H294.617V271.395H291.868V267.526H289.12V263.658H286.371V259.79H289.12V263.658H294.617V255.921H291.868V252.053H289.12V255.921H280.874V252.053H283.623V244.316H289.12V240.448H286.371V236.579H283.623V240.448H280.874V236.579H278.126V329.421ZM286.371 267.526V271.395H289.12V275.263H286.371V279.132H283.623V271.395H280.874V267.526H286.371ZM291.868 275.263V283H294.617V286.869H289.12V275.263H291.868ZM283.623 286.869V290.737H280.874V286.869H283.623ZM297.366 244.316H294.617V240.448H291.868V248.184H294.617V252.053H297.366V248.184H302.863V244.316H300.114V240.448H302.863V236.579H297.366V244.316ZM316.606 240.448H322.103V236.579H316.606V240.448ZM324.851 329.421H327.6V325.553H330.348V321.684H327.6V310.079H330.348V306.211H327.6V302.342H335.846V298.474H327.6V290.737H338.594V286.869H335.846V283H327.6V279.132H335.846V275.263H330.348V271.395H327.6V267.526H333.097V263.658H330.348V259.79H327.6V255.921H330.348V248.184H338.594V252.053H341.343V244.316H338.594V240.448H341.343V236.579H335.846V244.316H330.348V240.448H333.097V236.579H324.851V329.421ZM346.84 240.448H344.091V252.053H341.343V255.921H349.588V259.79H352.337V255.921H355.086V244.316H352.337V240.448H349.588V236.579H346.84V240.448ZM349.588 244.316V252.053H346.84V244.316H349.588ZM355.086 244.316H357.834V240.448H360.583V236.579H355.086V244.316ZM371.577 329.421H374.326V325.553H379.823V329.421H385.32V321.684H374.326V313.948H377.074V306.211H374.326V302.342H385.32V294.605H382.571V298.474H377.074V294.605H374.326V290.737H379.823V286.869H374.326V283H377.074V279.132H382.571V286.869H385.32V283H388.068V279.132H385.32V275.263H388.068V267.526H382.571V263.658H379.823V259.79H374.326V255.921H377.074V252.053H374.326V248.184H379.823V252.053H382.571V240.448H379.823V244.316H377.074V236.579H371.577V329.421ZM377.074 267.526V271.395H374.326V267.526H377.074ZM382.571 271.395V275.263H379.823V271.395H382.571ZM388.068 244.316H393.566V248.184H404.56V244.316H401.811V240.448H399.063V236.579H396.314V240.448H393.566V236.579H388.068V244.316ZM404.56 240.448H407.308V236.579H404.56V240.448ZM418.303 329.421H426.548V325.553H429.297V329.421H434.794V325.553H432.046V313.948H429.297V317.816H426.548V321.684H423.8V313.948H421.051V310.079H423.8V302.342H421.051V298.474H423.8V294.605H421.051V290.737H426.548V294.605H429.297V290.737H432.046V286.869H429.297V283H426.548V286.869H423.8V283H426.548V275.263H423.8V271.395H426.548V275.263H429.297V267.526H432.046V263.658H426.548V259.79H423.8V263.658H421.051V259.79H423.8V255.921H426.548V248.184H429.297V255.921H432.046V248.184H434.794V240.448H432.046V236.579H418.303V329.421ZM434.794 240.448H437.543V236.579H434.794V240.448ZM440.291 240.448H443.04V236.579H440.291V240.448ZM448.537 240.448H454.034V244.316H456.783V248.184H459.531V244.316H462.28V236.579H448.537V240.448ZM465.028 329.421H484.268V236.579H465.028V329.421ZM487.017 329.421H489.766V236.579H487.017V329.421ZM498.011 329.421H500.76V236.579H498.011V329.421ZM503.508 329.421H506.257V236.579H503.508V329.421ZM511.754 329.421H514.503V236.579H511.754V329.421ZM104.966 244.316H107.714V240.448H104.966V244.316ZM223.154 244.316H225.903V240.448H223.154V244.316ZM305.611 248.184H308.36V240.448H305.611V248.184ZM407.308 248.184H404.56V252.053H407.308V255.921H410.057V259.79H407.308V263.658H410.057V271.395H407.308V275.263H410.057V279.132H407.308V275.263H404.56V283H415.554V275.263H412.806V267.526H415.554V255.921H412.806V252.053H410.057V244.316H415.554V240.448H407.308V248.184ZM437.543 252.053H434.794V255.921H432.046V263.658H434.794V267.526H437.543V263.658H440.291V259.79H448.537V255.921H443.04V252.053H440.291V240.448H437.543V252.053ZM443.04 252.053H451.286V248.184H448.537V244.316H445.788V240.448H443.04V252.053ZM206.663 248.184H209.411V244.316H206.663V248.184ZM212.16 248.184H214.908V255.921H217.657V252.053H220.406V244.316H212.16V248.184ZM311.108 248.184H308.36V252.053H297.366V255.921H300.114V263.658H302.863V255.921H311.108V252.053H313.857V248.184H316.606V244.316H311.108V248.184ZM363.331 248.184H366.08V244.316H363.331V248.184ZM385.32 252.053H388.068V255.921H385.32V263.658H388.068V259.79H393.566V255.921H399.063V252.053H390.817V248.184H388.068V244.316H385.32V252.053ZM223.154 252.053H225.903V248.184H223.154V252.053ZM286.371 252.053H289.12V248.184H286.371V252.053ZM179.177 255.921H181.926V252.053H179.177V255.921ZM313.857 255.921H311.108V259.79H313.857V263.658H316.606V267.526H322.103V263.658H319.354V259.79H316.606V255.921H319.354V252.053H313.857V255.921ZM333.097 255.921H330.348V259.79H333.097V263.658H335.846V259.79H338.594V263.658H335.846V267.526H338.594V271.395H341.343V263.658H344.091V259.79H341.343V255.921H335.846V252.053H333.097V255.921ZM360.583 255.921H366.08V259.79H368.828V252.053H360.583V255.921ZM382.571 255.921H385.32V252.053H382.571V255.921ZM454.034 255.921H456.783V259.79H459.531V252.053H454.034V255.921ZM129.703 259.79H132.451V255.921H129.703V259.79ZM168.183 259.79H170.931V255.921H168.183V259.79ZM212.16 259.79H209.411V267.526H212.16V271.395H209.411V275.263H217.657V271.395H214.908V267.526H217.657V271.395H220.406V263.658H217.657V259.79H214.908V255.921H212.16V259.79ZM220.406 259.79H223.154V255.921H220.406V259.79ZM250.64 259.79H253.388V255.921H250.64V259.79ZM319.354 259.79H322.103V255.921H319.354V259.79ZM399.063 259.79H401.811V255.921H399.063V259.79ZM426.548 259.79H429.297V255.921H426.548V259.79ZM192.92 263.658H195.668V259.79H192.92V263.658ZM253.388 267.526H256.137V259.79H253.388V267.526ZM352.337 263.658H346.84V267.526H344.091V271.395H346.84V275.263H349.588V267.526H352.337V275.263H349.588V283H352.337V279.132H355.086V275.263H357.834V271.395H366.08V267.526H360.583V259.79H352.337V263.658ZM357.834 263.658V267.526H355.086V263.658H357.834ZM396.314 263.658H399.063V259.79H396.314V263.658ZM448.537 267.526H445.788V263.658H443.04V267.526H440.291V271.395H437.543V279.132H440.291V283H443.04V286.869H445.788V283H448.537V286.869H454.034V279.132H445.788V271.395H448.537V275.263H454.034V279.132H459.531V271.395H451.286V267.526H454.034V263.658H456.783V259.79H448.537V267.526ZM132.451 271.395H124.206V275.263H126.954V279.132H129.703V283H132.451V279.132H135.2V263.658H132.451V271.395ZM203.914 267.526H195.668V271.395H192.92V283H195.668V275.263H198.417V286.869H201.166V283H203.914V279.132H206.663V283H212.16V286.869H214.908V283H223.154V275.263H220.406V279.132H209.411V275.263H201.166V271.395H209.411V267.526H206.663V263.658H203.914V267.526ZM225.903 267.526H228.651V263.658H225.903V267.526ZM264.383 267.526H261.634V271.395H258.886V275.263H256.137V271.395H247.891V275.263H253.388V279.132H264.383V275.263H267.131V271.395H272.628V267.526H275.377V263.658H264.383V267.526ZM297.366 267.526H300.114V263.658H297.366V267.526ZM390.817 271.395H393.566V263.658H390.817V271.395ZM399.063 267.526H404.56V263.658H399.063V267.526ZM110.463 283H113.211V279.132H121.457V275.263H118.708V271.395H113.211V267.526H110.463V283ZM118.708 271.395H124.206V267.526H118.708V271.395ZM162.686 271.395H165.434V267.526H162.686V271.395ZM256.137 271.395H258.886V267.526H256.137V271.395ZM432.046 271.395H434.794V267.526H432.046V271.395ZM459.531 271.395H462.28V267.526H459.531V271.395ZM223.154 275.263H225.903V271.395H223.154V275.263ZM236.897 275.263H239.646V271.395H236.897V275.263ZM335.846 275.263H338.594V271.395H335.846V275.263ZM393.566 279.132H396.314V271.395H393.566V279.132ZM148.943 279.132H146.194V283H148.943V298.474H151.691V302.342H154.44V294.605H157.188V290.737H154.44V286.869H157.188V283H151.691V275.263H148.943V279.132ZM269.88 279.132H272.628V275.263H269.88V279.132ZM341.343 283H338.594V286.869H344.091V279.132H346.84V275.263H341.343V283ZM366.08 279.132H357.834V290.737H355.086V294.605H352.337V290.737H355.086V286.869H349.588V283H346.84V298.474H357.834V294.605H360.583V298.474H363.331V302.342H366.08V298.474H368.828V286.869H366.08V290.737H363.331V286.869H366.08V283H368.828V275.263H366.08V279.132ZM429.297 283H432.046V275.263H429.297V283ZM121.457 286.869H124.206V283H126.954V279.132H121.457V286.869ZM159.937 286.869H162.686V283H165.434V279.132H159.937V286.869ZM250.64 283H253.388V279.132H250.64V283ZM272.628 283H275.377V279.132H272.628V283ZM396.314 283H399.063V279.132H396.314V283ZM459.531 283H462.28V279.132H459.531V283ZM113.211 298.474H118.708V294.605H115.96V290.737H118.708V286.869H115.96V283H113.211V298.474ZM225.903 294.605H228.651V283H225.903V294.605ZM247.891 286.869H245.143V290.737H250.64V283H247.891V286.869ZM388.068 286.869H390.817V283H388.068V286.869ZM401.811 294.605H404.56V298.474H401.811V302.342H404.56V306.211H407.308V310.079H415.554V306.211H412.806V302.342H407.308V298.474H412.806V302.342H415.554V290.737H412.806V286.869H410.057V290.737H407.308V286.869H404.56V283H401.811V294.605ZM102.217 290.737H104.966V286.869H102.217V290.737ZM129.703 290.737H124.206V294.605H121.457V298.474H132.451V302.342H135.2V290.737H132.451V286.869H129.703V290.737ZM176.428 294.605H173.68V298.474H179.177V294.605H181.926V290.737H179.177V286.869H176.428V294.605ZM206.663 290.737H209.411V286.869H206.663V290.737ZM214.908 290.737H223.154V286.869H214.908V290.737ZM393.566 290.737H396.314V286.869H393.566V290.737ZM434.794 290.737H437.543V286.869H434.794V290.737ZM445.788 294.605H443.04V298.474H440.291V294.605H434.794V310.079H437.543V302.342H440.291V306.211H448.537V310.079H437.543V317.816H434.794V321.684H437.543V325.553H440.291V321.684H443.04V313.948H445.788V317.816H448.537V321.684H454.034V325.553H448.537V329.421H462.28V325.553H459.531V321.684H456.783V317.816H462.28V310.079H456.783V313.948H451.286V302.342H448.537V298.474H451.286V294.605H456.783V290.737H448.537V286.869H445.788V294.605ZM456.783 290.737H462.28V286.869H456.783V290.737ZM212.16 294.605H214.908V290.737H212.16V294.605ZM242.394 298.474H247.891V294.605H245.143V290.737H242.394V298.474ZM316.606 294.605H313.857V298.474H311.108V302.342H316.606V298.474H319.354V294.605H322.103V290.737H316.606V294.605ZM338.594 294.605H335.846V298.474H338.594V302.342H335.846V306.211H333.097V310.079H338.594V306.211H346.84V298.474H344.091V302.342H341.343V290.737H338.594V294.605ZM379.823 294.605H382.571V290.737H379.823V294.605ZM388.068 294.605H393.566V290.737H388.068V294.605ZM432.046 294.605H434.794V290.737H432.046V294.605ZM107.714 298.474H110.463V294.605H107.714V298.474ZM217.657 298.474H220.406V294.605H217.657V298.474ZM393.566 298.474H388.068V302.342H385.32V306.211H390.817V302.342H396.314V298.474H401.811V294.605H393.566V298.474ZM429.297 298.474H432.046V294.605H429.297V298.474ZM104.966 302.342H107.714V298.474H104.966V302.342ZM118.708 302.342H113.211V310.079H115.96V306.211H124.206V302.342H121.457V298.474H118.708V302.342ZM179.177 302.342H181.926V298.474H179.177V302.342ZM220.406 302.342H225.903V298.474H220.406V302.342ZM319.354 302.342H322.103V298.474H319.354V302.342ZM423.8 302.342H426.548V298.474H423.8V302.342ZM451.286 302.342H456.783V298.474H451.286V302.342ZM107.714 306.211H104.966V310.079H110.463V302.342H107.714V306.211ZM126.954 310.079H129.703V313.948H135.2V306.211H129.703V302.342H126.954V310.079ZM154.44 306.211H159.937V302.342H154.44V306.211ZM302.863 306.211H308.36V310.079H313.857V306.211H311.108V302.342H302.863V306.211ZM349.588 306.211H346.84V310.079H338.594V313.948H346.84V317.816H344.091V321.684H341.343V325.553H338.594V329.421H346.84V321.684H352.337V329.421H368.828V317.816H360.583V321.684H357.834V313.948H352.337V310.079H355.086V302.342H349.588V306.211ZM366.08 321.684V325.553H363.331V321.684H366.08ZM357.834 306.211H360.583V310.079H357.834V313.948H363.331V310.079H368.828V306.211H363.331V302.342H357.834V306.211ZM396.314 310.079H401.811V306.211H399.063V302.342H396.314V310.079ZM426.548 310.079H432.046V302.342H426.548V310.079ZM162.686 310.079H154.44V313.948H151.691V317.816H157.188V321.684H154.44V325.553H157.188V329.421H159.937V325.553H165.434V321.684H159.937V317.816H165.434V313.948H168.183V310.079H165.434V306.211H162.686V310.079ZM382.571 310.079H385.32V306.211H382.571V310.079ZM102.217 313.948H104.966V310.079H102.217V313.948ZM118.708 313.948H115.96V317.816H121.457V321.684H126.954V310.079H118.708V313.948ZM319.354 313.948H313.857V317.816H311.108V321.684H316.606V317.816H322.103V310.079H319.354V313.948ZM330.348 321.684H338.594V313.948H335.846V317.816H333.097V310.079H330.348V321.684ZM379.823 313.948H382.571V310.079H379.823V313.948ZM385.32 317.816H388.068V321.684H390.817V313.948H393.566V310.079H385.32V317.816ZM401.811 313.948H404.56V310.079H401.811V313.948ZM423.8 313.948H426.548V310.079H423.8V313.948ZM107.714 317.816H104.966V321.684H110.463V325.553H113.211V317.816H110.463V313.948H107.714V317.816ZM168.183 317.816H170.931V313.948H168.183V317.816ZM173.68 317.816H176.428V313.948H173.68V317.816ZM308.36 317.816H311.108V313.948H308.36V317.816ZM399.063 317.816H401.811V313.948H399.063V317.816ZM407.308 317.816H410.057V321.684H407.308V325.553H401.811V329.421H415.554V325.553H412.806V317.816H415.554V313.948H407.308V317.816ZM146.194 329.421H154.44V325.553H148.943V317.816H146.194V329.421ZM170.931 329.421H176.428V325.553H173.68V317.816H170.931V329.421ZM300.114 321.684H297.366V325.553H305.611V329.421H308.36V325.553H311.108V321.684H305.611V317.816H300.114V321.684ZM393.566 321.684H396.314V317.816H393.566V321.684ZM115.96 325.553H113.211V329.421H126.954V325.553H121.457V321.684H115.96V325.553ZM126.954 325.553H132.451V329.421H135.2V321.684H126.954V325.553ZM250.64 325.553H253.388V321.684H250.64V325.553ZM316.606 325.553H311.108V329.421H319.354V325.553H322.103V321.684H316.606V325.553ZM390.817 325.553H388.068V329.421H396.314V325.553H393.566V321.684H390.817V325.553ZM396.314 325.553H399.063V321.684H396.314V325.553ZM443.04 325.553H445.788V321.684H443.04V325.553ZM104.966 329.421H110.463V325.553H104.966V329.421ZM223.154 329.421H228.651V325.553H223.154V329.421ZM245.143 329.421H247.891V325.553H245.143V329.421ZM253.388 329.421H256.137V325.553H253.388V329.421ZM333.097 329.421H335.846V325.553H333.097V329.421ZM440.291 329.421H443.04V325.553H440.291V329.421Z" fill="#F0F0F0"/>
<path d="M102.91 129.785V117.151C102.91 112.169 99.1755 108.116 94.5856 108.116C89.9957 108.116 86.2616 112.169 86.2616 117.151V128.558C86.2616 142.305 81.5956 155.503 73.1225 165.721L61.4402 179.809C60.4587 180.993 60.5473 182.816 61.6379 183.882C62.7281 184.947 64.4078 184.851 65.3897 183.667L77.0719 169.579C86.4242 158.3 91.5748 143.732 91.5748 128.558V117.151C91.5748 115.349 92.9254 113.883 94.5856 113.883C96.2458 113.883 97.5964 115.349 97.5964 117.151V129.785C97.5964 146.702 91.8224 162.912 81.3377 175.43L69.9502 189.025C68.9633 190.203 69.0434 192.028 70.129 193.099C70.638 193.601 71.2774 193.848 71.915 193.848C72.6376 193.848 73.3573 193.53 73.8816 192.905L85.2688 179.309C96.6446 165.727 102.91 148.14 102.91 129.785Z" fill="#F0F0F0"/>
<path d="M114.244 117.151C114.244 105.386 105.425 95.8145 94.5851 95.8145C83.7452 95.8145 74.9264 105.386 74.9264 117.151V128.559C74.9264 139.261 71.2936 149.537 64.6971 157.492L56.3919 167.508C55.4104 168.691 55.4989 170.514 56.5895 171.58C57.6802 172.645 59.3595 172.549 60.3414 171.366L68.6465 161.35C76.1225 152.334 80.2399 140.689 80.2399 128.559V117.151C80.2399 108.566 86.6752 101.581 94.5855 101.581C102.496 101.581 108.931 108.566 108.931 117.151V129.786C108.931 149.769 102.11 168.919 89.7246 183.706L80.1166 195.177C79.1294 196.355 79.2095 198.179 80.2952 199.251C80.8042 199.753 81.4435 200 82.0811 200C82.8037 200 83.5234 199.682 84.0477 199.056L93.656 187.585C106.932 171.734 114.244 151.207 114.244 129.786V117.151V117.151Z" fill="#F0F0F0"/>
<path d="M125.579 117.151C125.579 98.6021 111.675 83.5117 94.5852 83.5117C77.4952 83.5117 63.5916 98.6021 63.5916 117.151V128.558C63.5916 136.217 60.9921 143.569 56.2719 149.261L48.7937 158.28C47.8122 159.464 47.9008 161.287 48.9914 162.352C50.0817 163.418 51.7617 163.321 52.7432 162.138L60.2213 153.119C65.8211 146.366 68.9048 137.644 68.9048 128.558V117.151C68.9048 101.782 80.4248 89.2785 94.5852 89.2785C108.745 89.2785 120.266 101.782 120.266 117.151V129.786C120.266 152.836 112.398 174.925 98.1113 191.981L95.4523 195.155C94.4654 196.334 94.5455 198.158 95.6312 199.229C96.1402 199.731 96.7799 199.978 97.4171 199.978C98.1397 199.978 98.8594 199.66 99.3837 199.034L102.042 195.86C117.22 177.739 125.578 154.274 125.578 129.786V117.151H125.579Z" fill="#F0F0F0"/>
<path d="M52.2568 117.152C52.2568 118.744 53.4463 120.035 54.9134 120.035C56.3806 120.035 57.57 118.744 57.57 117.152C57.57 107.442 60.8178 98.0633 66.7154 90.7418C72.5581 83.4884 80.5771 78.7451 89.295 77.3857C90.7473 77.1592 91.7553 75.6976 91.5467 74.1217C91.3381 72.5455 89.9903 71.4529 88.5395 71.6778C78.5649 73.2333 69.3936 78.6555 62.7153 86.9466C55.9711 95.3187 52.2568 106.046 52.2568 117.152Z" fill="#F0F0F0"/>
<path d="M57.5701 128.558C57.5701 126.965 56.3807 125.675 54.9135 125.675C53.4464 125.675 52.2569 126.965 52.2569 128.558C52.2569 133.172 50.691 137.602 47.8473 141.031L41.1956 149.053C40.2141 150.237 40.3026 152.06 41.3933 153.125C41.9012 153.621 42.5363 153.865 43.1696 153.865C43.8965 153.865 44.6208 153.543 45.1451 152.911L51.7968 144.889C55.5196 140.399 57.5701 134.599 57.5701 128.558Z" fill="#F0F0F0"/>
<path d="M131.699 154.298C130.279 153.897 128.828 154.818 128.456 156.358C127.475 160.425 126.256 164.468 124.829 168.375C124.289 169.855 124.956 171.531 126.32 172.117C126.642 172.255 126.972 172.321 127.298 172.321C128.356 172.321 129.356 171.631 129.769 170.499C131.274 166.376 132.562 162.109 133.597 157.817C133.968 156.277 133.118 154.701 131.699 154.298Z" fill="#F0F0F0"/>
<path d="M122.857 82.9855C121.765 81.9202 120.086 82.0179 119.105 83.202C118.124 84.3861 118.213 86.2091 119.304 87.2737C127.118 94.8981 131.6 105.788 131.6 117.151V129.785C131.6 134.581 131.295 139.413 130.694 144.148C130.494 145.726 131.51 147.18 132.963 147.398C133.086 147.416 133.208 147.425 133.329 147.425C134.636 147.425 135.774 146.379 135.957 144.935C136.592 139.939 136.913 134.842 136.913 129.785V117.151C136.913 104.154 131.79 91.7017 122.857 82.9855Z" fill="#F0F0F0"/>
<path d="M110.437 80.8497C110.806 81.0404 111.195 81.1304 111.578 81.1304C112.57 81.1304 113.523 80.5233 113.978 79.4857C114.609 78.0483 114.046 76.3275 112.722 75.6432C108.894 73.6652 104.826 72.3307 100.63 71.6768C99.1759 71.4519 97.8317 72.5449 97.623 74.1207C97.4144 75.6966 98.4225 77.1583 99.8748 77.3847C103.54 77.9564 107.094 79.122 110.437 80.8497Z" fill="#F0F0F0"/>
<path d="M94.5854 58.9072C93.5915 58.9072 92.5862 58.9372 91.5969 58.9964C90.1319 59.0841 89.0098 60.4443 89.0905 62.034C89.1716 63.624 90.4234 64.8485 91.8895 64.7539C92.7818 64.7005 93.6886 64.6736 94.5851 64.6736C121.245 64.6736 142.935 88.2146 142.935 117.151V129.785C142.935 131.378 144.124 132.669 145.592 132.669C147.059 132.669 148.248 131.378 148.248 129.785V117.151C148.248 85.0355 124.175 58.9072 94.5854 58.9072Z" fill="#F0F0F0"/>
<path d="M65.5385 74.5517C66.0617 74.5517 66.5905 74.3841 67.0528 74.0354C71.4726 70.6995 76.3267 68.2091 81.4809 66.6317C82.8931 66.1996 83.7152 64.6064 83.3171 63.074C82.919 61.5416 81.4508 60.6504 80.0392 61.081C74.3152 62.8326 68.9255 65.5979 64.0197 69.3001C62.815 70.2094 62.5174 72.0063 63.3552 73.3134C63.8712 74.12 64.698 74.5517 65.5385 74.5517Z" fill="#F0F0F0"/>
<path d="M46.2354 128.559V117.152C46.2354 103.738 50.9156 90.9637 59.4139 81.1807C60.4202 80.0219 60.371 78.1973 59.3034 77.1047C58.2358 76.0121 56.5543 76.0663 55.548 77.2247C46.1164 88.0819 40.9223 102.262 40.9223 117.152V128.559C40.9223 130.129 40.3895 131.635 39.4225 132.801L36.1468 136.752C35.1653 137.935 35.2538 139.758 36.3444 140.824C36.852 141.32 37.4875 141.564 38.1208 141.564C38.8476 141.564 39.5716 141.242 40.0962 140.61L43.372 136.66C45.2185 134.432 46.2354 131.555 46.2354 128.559Z" fill="#F0F0F0"/>
<path d="M156.21 94.701C153.296 85.3027 148.665 76.8122 142.446 69.465C141.453 68.2924 139.773 68.2147 138.693 69.2923C137.612 70.37 137.541 72.1938 138.534 73.3667C144.246 80.1154 148.499 87.912 151.174 96.5398C151.547 97.7443 152.582 98.5043 153.691 98.5043C153.972 98.5043 154.258 98.4555 154.539 98.3529C155.929 97.845 156.677 96.2099 156.21 94.701Z" fill="#F0F0F0"/>
<path d="M115.58 50.3807C114.192 49.8652 112.681 50.6683 112.206 52.1753C111.731 53.682 112.472 55.3213 113.86 55.8364C119.718 58.012 125.218 61.1638 130.207 65.2051C130.684 65.5915 131.241 65.7775 131.793 65.7775C132.603 65.7775 133.403 65.3773 133.925 64.6184C134.803 63.3424 134.56 61.5355 133.385 60.5832C127.952 56.1836 121.962 52.7505 115.58 50.3807Z" fill="#F0F0F0"/>
<path d="M53.3076 70.405C64.4827 58.7758 79.1421 52.3712 94.5853 52.3712C97.453 52.3712 100.337 52.5954 103.156 53.0367C104.609 53.2666 105.955 52.1709 106.165 50.5947C106.375 49.0184 105.368 47.5568 103.915 47.3292C100.845 46.8486 97.7059 46.6045 94.5853 46.6045C77.7649 46.6045 61.7995 53.5788 49.6306 66.2425C37.4995 78.8671 30.405 95.8086 29.6541 113.947C29.5882 115.537 30.7231 116.885 32.1885 116.956C32.2292 116.959 32.2696 116.959 32.31 116.959C33.7222 116.959 34.8978 115.752 34.962 114.206C35.6509 97.5544 42.1663 81.9992 53.3076 70.405Z" fill="#F0F0F0"/>
<path d="M94.5854 34.3027C88.6446 34.3027 82.7247 35.0501 76.9903 36.5241C75.5625 36.8908 74.6794 38.4448 75.0174 39.9941C75.3556 41.5435 76.7874 42.5023 78.2148 42.1351C83.5485 40.7649 89.0562 40.0695 94.5854 40.0695C114.066 40.0695 132.249 48.4931 145.787 63.7881C146.308 64.3774 147.005 64.6742 147.703 64.6742C148.365 64.6742 149.028 64.4074 149.543 63.8703C150.601 62.767 150.635 60.9416 149.619 59.7936C142.565 51.8244 134.28 45.5552 124.993 41.1613C115.374 36.6102 105.143 34.3027 94.5854 34.3027Z" fill="#F0F0F0"/>
<path d="M34.9114 70.2115C35.3974 70.6244 35.9744 70.8247 36.5475 70.8247C37.3364 70.8247 38.117 70.4452 38.6409 69.719C46.2122 59.2228 56.1797 50.9898 67.4656 45.9093C68.8208 45.2992 69.4641 43.6122 68.9019 42.1413C68.3398 40.6704 66.7848 39.9715 65.4303 40.5824C53.3017 46.0419 42.5914 54.8877 34.4577 66.1632C33.553 67.4177 33.7563 69.23 34.9114 70.2115Z" fill="#F0F0F0"/>
<path d="M57.7498 36.8878C58.1373 36.8878 58.5308 36.7955 58.9028 36.6002C70.0881 30.7385 82.0933 27.7667 94.5853 27.7667C101.095 27.7667 107.579 28.5979 113.855 30.2372C115.28 30.6086 116.716 29.6567 117.059 28.1085C117.402 26.5603 116.524 25.0029 115.097 24.6304C108.415 22.885 101.513 22 94.5853 22C81.2868 22 68.5044 25.1648 56.5929 31.4071C55.2717 32.0995 54.7177 33.8234 55.3557 35.2573C55.8137 36.2873 56.7623 36.8878 57.7498 36.8878Z" fill="#F0F0F0"/>
<path d="M124.958 34.0647C127.697 35.2484 130.408 36.6094 133.015 38.1091C133.412 38.3375 133.837 38.4455 134.257 38.4455C135.209 38.4455 136.129 37.8884 136.606 36.9115C137.293 35.5045 136.799 33.7594 135.503 33.0136C132.727 31.417 129.84 29.968 126.924 28.7074C125.561 28.118 124.016 28.84 123.473 30.319C122.93 31.7984 123.595 33.4757 124.958 34.0647Z" fill="#F0F0F0"/>
</svg>
