<svg width="560" height="363" viewBox="0 0 560 363" fill="none" xmlns="http://www.w3.org/2000/svg">
<rect x="2" y="2" width="556" height="359" stroke="#F0F0F0" stroke-width="4"/>
<path d="M407.846 233.797C409.204 233.303 410.548 232.359 411.801 231.222C416.178 227.242 418.474 221.453 418.474 215.529V214.663C405.933 212.783 398.635 210.394 398.635 210.394V169.063C397.206 166.596 395.227 164.313 394.917 161.503C394.619 158.775 396.186 155.956 398.635 154.737V135.73L398.806 135.7C399.137 93.6716 450.693 93.1703 457.74 103.782C471.816 101.203 489.131 106.602 491.014 127.239H491.016V127.284C491.235 129.684 491.249 132.285 491.016 135.109V155.664C492.649 157.1 493.603 159.329 493.364 161.503C493.147 163.464 492.109 165.165 491.016 166.853V210.394C491.016 210.394 482.667 213.112 468.526 215.035V215.529C468.526 221.451 470.822 227.24 475.199 231.22C476.452 232.359 477.796 233.303 479.156 233.797C484.594 235.779 521.674 243.453 537 256.576V290H448.5H438.5H350V256.576C365.326 243.453 402.406 235.779 407.846 233.797Z" fill="#F0F0F0"/>
<path d="M38.4941 197.577L35.4346 206H34.1841L37.707 196.758H38.5132L38.4941 197.577ZM41.0586 206L37.9927 197.577L37.9736 196.758H38.7798L42.3154 206H41.0586ZM40.8999 202.579V203.582H35.7075V202.579H40.8999ZM46.9619 202.375H44.4927V201.379H46.9619C47.4401 201.379 47.8273 201.303 48.1235 201.15C48.4198 200.998 48.6356 200.786 48.771 200.516C48.9106 200.245 48.9805 199.936 48.9805 199.589C48.9805 199.271 48.9106 198.973 48.771 198.694C48.6356 198.415 48.4198 198.19 48.1235 198.021C47.8273 197.847 47.4401 197.761 46.9619 197.761H44.7783V206H43.5532V196.758H46.9619C47.6602 196.758 48.2505 196.878 48.7329 197.12C49.2153 197.361 49.5814 197.695 49.8311 198.123C50.0807 198.546 50.2056 199.03 50.2056 199.576C50.2056 200.169 50.0807 200.674 49.8311 201.093C49.5814 201.512 49.2153 201.832 48.7329 202.052C48.2505 202.268 47.6602 202.375 46.9619 202.375ZM57.626 205.003V206H52.7319V205.003H57.626ZM52.9795 196.758V206H51.7544V196.758H52.9795ZM56.9785 200.731V201.728H52.7319V200.731H56.9785ZM57.5625 196.758V197.761H52.7319V196.758H57.5625ZM64.748 205.003V206H60.127V205.003H64.748ZM60.3682 196.758V206H59.1431V196.758H60.3682ZM71.7559 205.003V206H67.1348V205.003H71.7559ZM67.376 196.758V206H66.1509V196.758H67.376ZM74.4727 196.758V206H73.2476V196.758H74.4727ZM79.2017 206H77.272L77.2847 205.003H79.2017C79.8618 205.003 80.4119 204.866 80.8521 204.591C81.2922 204.312 81.6222 203.922 81.8423 203.423C82.0666 202.919 82.1787 202.331 82.1787 201.658V201.093C82.1787 200.564 82.1152 200.095 81.9883 199.684C81.8613 199.269 81.6751 198.92 81.4297 198.637C81.1842 198.349 80.8838 198.131 80.5283 197.983C80.1771 197.835 79.7729 197.761 79.3159 197.761H77.2339V196.758H79.3159C79.9211 196.758 80.4733 196.859 80.9727 197.062C81.472 197.261 81.9015 197.551 82.2612 197.932C82.6252 198.309 82.9045 198.766 83.0991 199.303C83.2938 199.836 83.3911 200.437 83.3911 201.106V201.658C83.3911 202.327 83.2938 202.93 83.0991 203.467C82.9045 204 82.623 204.455 82.2549 204.832C81.891 205.209 81.4508 205.499 80.9346 205.702C80.4225 205.901 79.8449 206 79.2017 206ZM77.9258 196.758V206H76.7007V196.758H77.9258ZM92.3477 201.087V201.671C92.3477 202.365 92.2609 202.987 92.0874 203.537C91.9139 204.087 91.6642 204.555 91.3384 204.94C91.0125 205.325 90.6211 205.619 90.1641 205.822C89.7113 206.025 89.2035 206.127 88.6406 206.127C88.0947 206.127 87.5933 206.025 87.1362 205.822C86.6834 205.619 86.2899 205.325 85.9556 204.94C85.6255 204.555 85.3695 204.087 85.1875 203.537C85.0055 202.987 84.9146 202.365 84.9146 201.671V201.087C84.9146 200.393 85.0034 199.773 85.1812 199.227C85.3631 198.677 85.6191 198.209 85.9492 197.824C86.2793 197.435 86.6707 197.139 87.1235 196.936C87.5806 196.732 88.082 196.631 88.6279 196.631C89.1908 196.631 89.6986 196.732 90.1514 196.936C90.6084 197.139 90.9998 197.435 91.3257 197.824C91.6558 198.209 91.9076 198.677 92.0811 199.227C92.2588 199.773 92.3477 200.393 92.3477 201.087ZM91.1353 201.671V201.074C91.1353 200.524 91.0781 200.037 90.9639 199.614C90.8538 199.191 90.6909 198.836 90.4751 198.548C90.2593 198.26 89.9948 198.042 89.6816 197.894C89.3727 197.746 89.0215 197.672 88.6279 197.672C88.2471 197.672 87.9022 197.746 87.5933 197.894C87.2886 198.042 87.0262 198.26 86.8062 198.548C86.5903 198.836 86.4232 199.191 86.3047 199.614C86.1862 200.037 86.127 200.524 86.127 201.074V201.671C86.127 202.225 86.1862 202.716 86.3047 203.144C86.4232 203.567 86.5924 203.924 86.8125 204.216C87.0368 204.504 87.3013 204.722 87.606 204.87C87.9149 205.018 88.2598 205.092 88.6406 205.092C89.0384 205.092 89.3918 205.018 89.7007 204.87C90.0096 204.722 90.2699 204.504 90.4814 204.216C90.6973 203.924 90.8602 203.567 90.9702 203.144C91.0802 202.716 91.1353 202.225 91.1353 201.671ZM99.1079 203.664C99.1079 203.448 99.0741 203.258 99.0063 203.093C98.9429 202.924 98.8286 202.771 98.6636 202.636C98.5028 202.5 98.2785 202.371 97.9907 202.249C97.7072 202.126 97.3475 202.001 96.9116 201.874C96.4546 201.739 96.042 201.588 95.6738 201.423C95.3057 201.254 94.9904 201.062 94.728 200.846C94.4657 200.63 94.2646 200.382 94.125 200.103C93.9854 199.824 93.9155 199.504 93.9155 199.145C93.9155 198.785 93.9896 198.453 94.1377 198.148C94.2858 197.843 94.4974 197.579 94.7725 197.354C95.0518 197.126 95.384 196.948 95.769 196.821C96.1541 196.694 96.5837 196.631 97.0576 196.631C97.7516 196.631 98.3398 196.764 98.8223 197.031C99.3089 197.293 99.6792 197.638 99.9331 198.065C100.187 198.489 100.314 198.941 100.314 199.424H99.0952C99.0952 199.077 99.0212 198.77 98.873 198.503C98.7249 198.233 98.5007 198.021 98.2002 197.869C97.8997 197.712 97.5189 197.634 97.0576 197.634C96.6217 197.634 96.262 197.699 95.9785 197.831C95.695 197.962 95.4834 198.139 95.3438 198.364C95.2083 198.588 95.1406 198.844 95.1406 199.132C95.1406 199.326 95.1808 199.504 95.2612 199.665C95.3459 199.822 95.4749 199.968 95.6484 200.103C95.8262 200.238 96.0505 200.363 96.3213 200.478C96.5964 200.592 96.9243 200.702 97.3052 200.808C97.8299 200.956 98.2827 201.121 98.6636 201.303C99.0444 201.485 99.3576 201.69 99.603 201.918C99.8527 202.143 100.037 202.399 100.155 202.687C100.278 202.97 100.339 203.292 100.339 203.651C100.339 204.028 100.263 204.369 100.111 204.673C99.9585 204.978 99.7406 205.238 99.457 205.454C99.1735 205.67 98.8328 205.837 98.4351 205.956C98.0415 206.07 97.6014 206.127 97.1147 206.127C96.6873 206.127 96.2663 206.068 95.8516 205.949C95.4411 205.831 95.0666 205.653 94.728 205.416C94.3937 205.179 94.125 204.887 93.9219 204.54C93.723 204.189 93.6235 203.783 93.6235 203.321H94.8423C94.8423 203.639 94.9036 203.912 95.0264 204.14C95.1491 204.364 95.3162 204.551 95.5278 204.699C95.7437 204.847 95.987 204.957 96.2578 205.029C96.5329 205.097 96.8185 205.13 97.1147 205.13C97.5422 205.13 97.904 205.071 98.2002 204.953C98.4964 204.834 98.7207 204.665 98.873 204.445C99.0296 204.225 99.1079 203.965 99.1079 203.664Z" fill="#F0F0F0"/>
<path d="M43.3691 223.943V226H36.9268V223.943H43.3691ZM37.7793 213.203V226H35.1426V213.203H37.7793ZM54.8301 219.303V219.909C54.8301 220.882 54.6982 221.755 54.4346 222.528C54.1709 223.302 53.7988 223.961 53.3184 224.506C52.8379 225.045 52.2637 225.458 51.5957 225.745C50.9336 226.032 50.1982 226.176 49.3896 226.176C48.5869 226.176 47.8516 226.032 47.1836 225.745C46.5215 225.458 45.9473 225.045 45.4609 224.506C44.9746 223.961 44.5967 223.302 44.3271 222.528C44.0635 221.755 43.9316 220.882 43.9316 219.909V219.303C43.9316 218.324 44.0635 217.451 44.3271 216.684C44.5908 215.91 44.9629 215.251 45.4434 214.706C45.9297 214.161 46.5039 213.745 47.166 213.458C47.834 213.171 48.5693 213.027 49.3721 213.027C50.1807 213.027 50.916 213.171 51.5781 213.458C52.2461 213.745 52.8203 214.161 53.3008 214.706C53.7871 215.251 54.1621 215.91 54.4258 216.684C54.6953 217.451 54.8301 218.324 54.8301 219.303ZM52.167 219.909V219.285C52.167 218.605 52.1055 218.008 51.9824 217.492C51.8594 216.977 51.6777 216.543 51.4375 216.191C51.1973 215.84 50.9043 215.576 50.5586 215.4C50.2129 215.219 49.8174 215.128 49.3721 215.128C48.9268 215.128 48.5312 215.219 48.1855 215.4C47.8457 215.576 47.5557 215.84 47.3154 216.191C47.0811 216.543 46.9023 216.977 46.7793 217.492C46.6562 218.008 46.5947 218.605 46.5947 219.285V219.909C46.5947 220.583 46.6562 221.181 46.7793 221.702C46.9023 222.218 47.084 222.654 47.3242 223.012C47.5645 223.363 47.8574 223.63 48.2031 223.812C48.5488 223.993 48.9443 224.084 49.3896 224.084C49.835 224.084 50.2305 223.993 50.5762 223.812C50.9219 223.63 51.2119 223.363 51.4463 223.012C51.6807 222.654 51.8594 222.218 51.9824 221.702C52.1055 221.181 52.167 220.583 52.167 219.909ZM56.7285 213.203H61.501C62.4795 213.203 63.3203 213.35 64.0234 213.643C64.7324 213.936 65.2773 214.369 65.6582 214.943C66.0391 215.518 66.2295 216.224 66.2295 217.062C66.2295 217.747 66.1123 218.336 65.8779 218.828C65.6494 219.314 65.3242 219.722 64.9023 220.05C64.4863 220.372 63.9971 220.63 63.4346 220.823L62.5996 221.263H58.4512L58.4336 219.206H61.5186C61.9814 219.206 62.3652 219.124 62.6699 218.96C62.9746 218.796 63.2031 218.567 63.3555 218.274C63.5137 217.981 63.5928 217.642 63.5928 217.255C63.5928 216.845 63.5166 216.49 63.3643 216.191C63.2119 215.893 62.9805 215.664 62.6699 215.506C62.3594 215.348 61.9697 215.269 61.501 215.269H59.3652V226H56.7285V213.203ZM63.8828 226L60.9648 220.296L63.751 220.278L66.7041 225.877V226H63.8828ZM76.8467 223.943V226H70.0352V223.943H76.8467ZM70.8965 213.203V226H68.2598V213.203H70.8965ZM75.959 218.415V220.419H70.0352V218.415H75.959ZM76.8379 213.203V215.269H70.0352V213.203H76.8379ZM79.5889 213.203H81.8213L85.1084 222.599L88.3955 213.203H90.6279L86.0049 226H84.2119L79.5889 213.203ZM78.3848 213.203H80.6084L81.0127 222.361V226H78.3848V213.203ZM89.6084 213.203H91.8408V226H89.2041V222.361L89.6084 213.203ZM101.438 213.203V226H98.8105V213.203H101.438ZM108.892 221.438H105.631V219.382H108.892C109.396 219.382 109.806 219.3 110.122 219.136C110.438 218.966 110.67 218.731 110.816 218.433C110.963 218.134 111.036 217.797 111.036 217.422C111.036 217.041 110.963 216.687 110.816 216.358C110.67 216.03 110.438 215.767 110.122 215.567C109.806 215.368 109.396 215.269 108.892 215.269H106.545V226H103.908V213.203H108.892C109.894 213.203 110.752 213.385 111.467 213.748C112.188 214.105 112.738 214.601 113.119 215.233C113.5 215.866 113.69 216.59 113.69 217.404C113.69 218.23 113.5 218.945 113.119 219.549C112.738 220.152 112.188 220.618 111.467 220.946C110.752 221.274 109.894 221.438 108.892 221.438ZM122.172 222.651C122.172 222.423 122.137 222.218 122.066 222.036C122.002 221.849 121.879 221.679 121.697 221.526C121.516 221.368 121.261 221.213 120.933 221.061C120.604 220.908 120.18 220.75 119.658 220.586C119.078 220.398 118.527 220.188 118.006 219.953C117.49 219.719 117.033 219.446 116.635 219.136C116.242 218.819 115.932 218.453 115.703 218.037C115.48 217.621 115.369 217.138 115.369 216.587C115.369 216.054 115.486 215.57 115.721 215.137C115.955 214.697 116.283 214.322 116.705 214.012C117.127 213.695 117.625 213.452 118.199 213.282C118.779 213.112 119.415 213.027 120.106 213.027C121.05 213.027 121.873 213.197 122.576 213.537C123.279 213.877 123.824 214.343 124.211 214.935C124.604 215.526 124.8 216.203 124.8 216.965H122.181C122.181 216.59 122.102 216.262 121.943 215.98C121.791 215.693 121.557 215.468 121.24 215.304C120.93 215.14 120.537 215.058 120.062 215.058C119.605 215.058 119.225 215.128 118.92 215.269C118.615 215.403 118.387 215.588 118.234 215.822C118.082 216.051 118.006 216.309 118.006 216.596C118.006 216.812 118.059 217.009 118.164 217.185C118.275 217.36 118.439 217.524 118.656 217.677C118.873 217.829 119.14 217.973 119.456 218.107C119.772 218.242 120.139 218.374 120.555 218.503C121.252 218.714 121.864 218.951 122.392 219.215C122.925 219.479 123.37 219.774 123.728 220.103C124.085 220.431 124.354 220.803 124.536 221.219C124.718 221.635 124.809 222.106 124.809 222.634C124.809 223.19 124.7 223.688 124.483 224.128C124.267 224.567 123.953 224.939 123.543 225.244C123.133 225.549 122.644 225.78 122.075 225.938C121.507 226.097 120.871 226.176 120.168 226.176C119.535 226.176 118.911 226.094 118.296 225.93C117.681 225.76 117.121 225.505 116.617 225.165C116.119 224.825 115.721 224.392 115.422 223.864C115.123 223.337 114.974 222.713 114.974 221.992H117.619C117.619 222.391 117.681 222.728 117.804 223.003C117.927 223.278 118.1 223.501 118.322 223.671C118.551 223.841 118.82 223.964 119.131 224.04C119.447 224.116 119.793 224.154 120.168 224.154C120.625 224.154 121 224.09 121.293 223.961C121.592 223.832 121.812 223.653 121.952 223.425C122.099 223.196 122.172 222.938 122.172 222.651ZM133.668 213.203H136.296V221.658C136.296 222.643 136.085 223.472 135.663 224.146C135.247 224.819 134.67 225.326 133.932 225.666C133.199 226.006 132.355 226.176 131.4 226.176C130.445 226.176 129.596 226.006 128.852 225.666C128.113 225.326 127.533 224.819 127.111 224.146C126.695 223.472 126.487 222.643 126.487 221.658V213.203H129.124V221.658C129.124 222.232 129.215 222.701 129.396 223.064C129.578 223.428 129.839 223.694 130.179 223.864C130.524 224.034 130.932 224.119 131.4 224.119C131.881 224.119 132.288 224.034 132.622 223.864C132.962 223.694 133.22 223.428 133.396 223.064C133.577 222.701 133.668 222.232 133.668 221.658V213.203ZM139.671 213.203H141.903L145.19 222.599L148.478 213.203H150.71L146.087 226H144.294L139.671 213.203ZM138.467 213.203H140.69L141.095 222.361V226H138.467V213.203ZM149.69 213.203H151.923V226H149.286V222.361L149.69 213.203Z" fill="#F0F0F0"/>
<path d="M42.1821 129.758V139H40.9507L36.2979 131.872V139H35.0728V129.758H36.2979L40.9697 136.905V129.758H42.1821ZM49.6406 129.758H50.8594V136.01C50.8594 136.704 50.7049 137.282 50.396 137.743C50.0871 138.204 49.6766 138.551 49.1646 138.784C48.6567 139.013 48.1045 139.127 47.5078 139.127C46.8815 139.127 46.3145 139.013 45.8066 138.784C45.3031 138.551 44.9032 138.204 44.6069 137.743C44.3149 137.282 44.1689 136.704 44.1689 136.01V129.758H45.3813V136.01C45.3813 136.493 45.4702 136.89 45.6479 137.204C45.8257 137.517 46.0732 137.75 46.3906 137.902C46.7122 138.054 47.0846 138.13 47.5078 138.13C47.9352 138.13 48.3076 138.054 48.625 137.902C48.9466 137.75 49.1963 137.517 49.374 137.204C49.5518 136.89 49.6406 136.493 49.6406 136.01V129.758ZM53.1699 129.758H54.3569L57.3848 137.292L60.4062 129.758H61.5996L57.8418 139H56.915L53.1699 129.758ZM52.7827 129.758H53.8301L54.0015 135.395V139H52.7827V129.758ZM60.9331 129.758H61.9805V139H60.7617V135.395L60.9331 129.758ZM70.0039 138.003V139H65.1099V138.003H70.0039ZM65.3574 129.758V139H64.1323V129.758H65.3574ZM69.3564 133.731V134.728H65.1099V133.731H69.3564ZM69.9404 129.758V130.761H65.1099V129.758H69.9404ZM71.521 129.758H74.5806C75.2746 129.758 75.8607 129.864 76.3389 130.075C76.8213 130.287 77.1873 130.6 77.437 131.015C77.6909 131.425 77.8179 131.931 77.8179 132.532C77.8179 132.955 77.7311 133.342 77.5576 133.693C77.3883 134.04 77.1429 134.337 76.8213 134.582C76.5039 134.823 76.123 135.003 75.6787 135.122L75.3359 135.255H72.4604L72.4478 134.258H74.6187C75.0588 134.258 75.4248 134.182 75.7168 134.03C76.0088 133.873 76.2288 133.664 76.377 133.401C76.5251 133.139 76.5991 132.849 76.5991 132.532C76.5991 132.176 76.5293 131.865 76.3896 131.599C76.25 131.332 76.0299 131.127 75.7295 130.983C75.4333 130.835 75.0503 130.761 74.5806 130.761H72.7461V139H71.521V129.758ZM76.9229 139L74.6758 134.811L75.9517 134.804L78.2305 138.924V139H76.9229ZM86.6475 134.087V134.671C86.6475 135.365 86.5607 135.987 86.3872 136.537C86.2137 137.087 85.964 137.555 85.6382 137.94C85.3123 138.325 84.9209 138.619 84.4639 138.822C84.0111 139.025 83.5033 139.127 82.9404 139.127C82.3945 139.127 81.8931 139.025 81.436 138.822C80.9832 138.619 80.5897 138.325 80.2554 137.94C79.9253 137.555 79.6693 137.087 79.4873 136.537C79.3053 135.987 79.2144 135.365 79.2144 134.671V134.087C79.2144 133.393 79.3032 132.773 79.481 132.227C79.6629 131.677 79.9189 131.209 80.249 130.824C80.5791 130.435 80.9705 130.139 81.4233 129.936C81.8804 129.732 82.3818 129.631 82.9277 129.631C83.4906 129.631 83.9984 129.732 84.4512 129.936C84.9082 130.139 85.2996 130.435 85.6255 130.824C85.9556 131.209 86.2074 131.677 86.3809 132.227C86.5586 132.773 86.6475 133.393 86.6475 134.087ZM85.4351 134.671V134.074C85.4351 133.524 85.3779 133.037 85.2637 132.614C85.1536 132.191 84.9907 131.836 84.7749 131.548C84.5591 131.26 84.2946 131.042 83.9814 130.894C83.6725 130.746 83.3213 130.672 82.9277 130.672C82.5469 130.672 82.202 130.746 81.8931 130.894C81.5884 131.042 81.326 131.26 81.106 131.548C80.8901 131.836 80.723 132.191 80.6045 132.614C80.486 133.037 80.4268 133.524 80.4268 134.074V134.671C80.4268 135.225 80.486 135.716 80.6045 136.144C80.723 136.567 80.8923 136.924 81.1123 137.216C81.3366 137.504 81.6011 137.722 81.9058 137.87C82.2147 138.018 82.5596 138.092 82.9404 138.092C83.3382 138.092 83.6916 138.018 84.0005 137.87C84.3094 137.722 84.5697 137.504 84.7812 137.216C84.9971 136.924 85.16 136.567 85.27 136.144C85.38 135.716 85.4351 135.225 85.4351 134.671Z" fill="#F0F0F0"/>
<path d="M43.3691 156.943V159H36.9268V156.943H43.3691ZM37.7793 146.203V159H35.1426V146.203H37.7793ZM54.8301 152.303V152.909C54.8301 153.882 54.6982 154.755 54.4346 155.528C54.1709 156.302 53.7988 156.961 53.3184 157.506C52.8379 158.045 52.2637 158.458 51.5957 158.745C50.9336 159.032 50.1982 159.176 49.3896 159.176C48.5869 159.176 47.8516 159.032 47.1836 158.745C46.5215 158.458 45.9473 158.045 45.4609 157.506C44.9746 156.961 44.5967 156.302 44.3271 155.528C44.0635 154.755 43.9316 153.882 43.9316 152.909V152.303C43.9316 151.324 44.0635 150.451 44.3271 149.684C44.5908 148.91 44.9629 148.251 45.4434 147.706C45.9297 147.161 46.5039 146.745 47.166 146.458C47.834 146.171 48.5693 146.027 49.3721 146.027C50.1807 146.027 50.916 146.171 51.5781 146.458C52.2461 146.745 52.8203 147.161 53.3008 147.706C53.7871 148.251 54.1621 148.91 54.4258 149.684C54.6953 150.451 54.8301 151.324 54.8301 152.303ZM52.167 152.909V152.285C52.167 151.605 52.1055 151.008 51.9824 150.492C51.8594 149.977 51.6777 149.543 51.4375 149.191C51.1973 148.84 50.9043 148.576 50.5586 148.4C50.2129 148.219 49.8174 148.128 49.3721 148.128C48.9268 148.128 48.5312 148.219 48.1855 148.4C47.8457 148.576 47.5557 148.84 47.3154 149.191C47.0811 149.543 46.9023 149.977 46.7793 150.492C46.6562 151.008 46.5947 151.605 46.5947 152.285V152.909C46.5947 153.583 46.6562 154.181 46.7793 154.702C46.9023 155.218 47.084 155.654 47.3242 156.012C47.5645 156.363 47.8574 156.63 48.2031 156.812C48.5488 156.993 48.9443 157.084 49.3896 157.084C49.835 157.084 50.2305 156.993 50.5762 156.812C50.9219 156.63 51.2119 156.363 51.4463 156.012C51.6807 155.654 51.8594 155.218 51.9824 154.702C52.1055 154.181 52.167 153.583 52.167 152.909ZM56.7285 146.203H61.501C62.4795 146.203 63.3203 146.35 64.0234 146.643C64.7324 146.936 65.2773 147.369 65.6582 147.943C66.0391 148.518 66.2295 149.224 66.2295 150.062C66.2295 150.747 66.1123 151.336 65.8779 151.828C65.6494 152.314 65.3242 152.722 64.9023 153.05C64.4863 153.372 63.9971 153.63 63.4346 153.823L62.5996 154.263H58.4512L58.4336 152.206H61.5186C61.9814 152.206 62.3652 152.124 62.6699 151.96C62.9746 151.796 63.2031 151.567 63.3555 151.274C63.5137 150.981 63.5928 150.642 63.5928 150.255C63.5928 149.845 63.5166 149.49 63.3643 149.191C63.2119 148.893 62.9805 148.664 62.6699 148.506C62.3594 148.348 61.9697 148.269 61.501 148.269H59.3652V159H56.7285V146.203ZM63.8828 159L60.9648 153.296L63.751 153.278L66.7041 158.877V159H63.8828ZM76.8467 156.943V159H70.0352V156.943H76.8467ZM70.8965 146.203V159H68.2598V146.203H70.8965ZM75.959 151.415V153.419H70.0352V151.415H75.959ZM76.8379 146.203V148.269H70.0352V146.203H76.8379ZM79.5889 146.203H81.8213L85.1084 155.599L88.3955 146.203H90.6279L86.0049 159H84.2119L79.5889 146.203ZM78.3848 146.203H80.6084L81.0127 155.361V159H78.3848V146.203ZM89.6084 146.203H91.8408V159H89.2041V155.361L89.6084 146.203ZM101.438 146.203V159H98.8105V146.203H101.438ZM108.892 154.438H105.631V152.382H108.892C109.396 152.382 109.806 152.3 110.122 152.136C110.438 151.966 110.67 151.731 110.816 151.433C110.963 151.134 111.036 150.797 111.036 150.422C111.036 150.041 110.963 149.687 110.816 149.358C110.67 149.03 110.438 148.767 110.122 148.567C109.806 148.368 109.396 148.269 108.892 148.269H106.545V159H103.908V146.203H108.892C109.894 146.203 110.752 146.385 111.467 146.748C112.188 147.105 112.738 147.601 113.119 148.233C113.5 148.866 113.69 149.59 113.69 150.404C113.69 151.23 113.5 151.945 113.119 152.549C112.738 153.152 112.188 153.618 111.467 153.946C110.752 154.274 109.894 154.438 108.892 154.438ZM122.172 155.651C122.172 155.423 122.137 155.218 122.066 155.036C122.002 154.849 121.879 154.679 121.697 154.526C121.516 154.368 121.261 154.213 120.933 154.061C120.604 153.908 120.18 153.75 119.658 153.586C119.078 153.398 118.527 153.188 118.006 152.953C117.49 152.719 117.033 152.446 116.635 152.136C116.242 151.819 115.932 151.453 115.703 151.037C115.48 150.621 115.369 150.138 115.369 149.587C115.369 149.054 115.486 148.57 115.721 148.137C115.955 147.697 116.283 147.322 116.705 147.012C117.127 146.695 117.625 146.452 118.199 146.282C118.779 146.112 119.415 146.027 120.106 146.027C121.05 146.027 121.873 146.197 122.576 146.537C123.279 146.877 123.824 147.343 124.211 147.935C124.604 148.526 124.8 149.203 124.8 149.965H122.181C122.181 149.59 122.102 149.262 121.943 148.98C121.791 148.693 121.557 148.468 121.24 148.304C120.93 148.14 120.537 148.058 120.062 148.058C119.605 148.058 119.225 148.128 118.92 148.269C118.615 148.403 118.387 148.588 118.234 148.822C118.082 149.051 118.006 149.309 118.006 149.596C118.006 149.812 118.059 150.009 118.164 150.185C118.275 150.36 118.439 150.524 118.656 150.677C118.873 150.829 119.14 150.973 119.456 151.107C119.772 151.242 120.139 151.374 120.555 151.503C121.252 151.714 121.864 151.951 122.392 152.215C122.925 152.479 123.37 152.774 123.728 153.103C124.085 153.431 124.354 153.803 124.536 154.219C124.718 154.635 124.809 155.106 124.809 155.634C124.809 156.19 124.7 156.688 124.483 157.128C124.267 157.567 123.953 157.939 123.543 158.244C123.133 158.549 122.644 158.78 122.075 158.938C121.507 159.097 120.871 159.176 120.168 159.176C119.535 159.176 118.911 159.094 118.296 158.93C117.681 158.76 117.121 158.505 116.617 158.165C116.119 157.825 115.721 157.392 115.422 156.864C115.123 156.337 114.974 155.713 114.974 154.992H117.619C117.619 155.391 117.681 155.728 117.804 156.003C117.927 156.278 118.1 156.501 118.322 156.671C118.551 156.841 118.82 156.964 119.131 157.04C119.447 157.116 119.793 157.154 120.168 157.154C120.625 157.154 121 157.09 121.293 156.961C121.592 156.832 121.812 156.653 121.952 156.425C122.099 156.196 122.172 155.938 122.172 155.651ZM133.668 146.203H136.296V154.658C136.296 155.643 136.085 156.472 135.663 157.146C135.247 157.819 134.67 158.326 133.932 158.666C133.199 159.006 132.355 159.176 131.4 159.176C130.445 159.176 129.596 159.006 128.852 158.666C128.113 158.326 127.533 157.819 127.111 157.146C126.695 156.472 126.487 155.643 126.487 154.658V146.203H129.124V154.658C129.124 155.232 129.215 155.701 129.396 156.064C129.578 156.428 129.839 156.694 130.179 156.864C130.524 157.034 130.932 157.119 131.4 157.119C131.881 157.119 132.288 157.034 132.622 156.864C132.962 156.694 133.22 156.428 133.396 156.064C133.577 155.701 133.668 155.232 133.668 154.658V146.203ZM139.671 146.203H141.903L145.19 155.599L148.478 146.203H150.71L146.087 159H144.294L139.671 146.203ZM138.467 146.203H140.69L141.095 155.361V159H138.467V146.203ZM149.69 146.203H151.923V159H149.286V155.361L149.69 146.203Z" fill="#F0F0F0"/>
<path d="M42.1821 263.758V273H40.9507L36.2979 265.872V273H35.0728V263.758H36.2979L40.9697 270.905V263.758H42.1821ZM51.4688 268.087V268.671C51.4688 269.365 51.382 269.987 51.2085 270.537C51.035 271.087 50.7853 271.555 50.4595 271.94C50.1336 272.325 49.7422 272.619 49.2852 272.822C48.8324 273.025 48.3245 273.127 47.7617 273.127C47.2158 273.127 46.7144 273.025 46.2573 272.822C45.8045 272.619 45.411 272.325 45.0767 271.94C44.7466 271.555 44.4906 271.087 44.3086 270.537C44.1266 269.987 44.0356 269.365 44.0356 268.671V268.087C44.0356 267.393 44.1245 266.773 44.3022 266.227C44.4842 265.677 44.7402 265.209 45.0703 264.824C45.4004 264.435 45.7918 264.139 46.2446 263.936C46.7017 263.732 47.2031 263.631 47.749 263.631C48.3118 263.631 48.8197 263.732 49.2725 263.936C49.7295 264.139 50.1209 264.435 50.4468 264.824C50.7769 265.209 51.0286 265.677 51.2021 266.227C51.3799 266.773 51.4688 267.393 51.4688 268.087ZM50.2563 268.671V268.074C50.2563 267.524 50.1992 267.037 50.085 266.614C49.9749 266.191 49.812 265.836 49.5962 265.548C49.3804 265.26 49.1159 265.042 48.8027 264.894C48.4938 264.746 48.1426 264.672 47.749 264.672C47.3682 264.672 47.0233 264.746 46.7144 264.894C46.4097 265.042 46.1473 265.26 45.9272 265.548C45.7114 265.836 45.5443 266.191 45.4258 266.614C45.3073 267.037 45.248 267.524 45.248 268.074V268.671C45.248 269.225 45.3073 269.716 45.4258 270.144C45.5443 270.567 45.7135 270.924 45.9336 271.216C46.1579 271.504 46.4224 271.722 46.7271 271.87C47.036 272.018 47.3809 272.092 47.7617 272.092C48.1595 272.092 48.5129 272.018 48.8218 271.87C49.1307 271.722 49.391 271.504 49.6025 271.216C49.8184 270.924 49.9813 270.567 50.0913 270.144C50.2013 269.716 50.2563 269.225 50.2563 268.671ZM53.6904 263.758H54.8774L57.9053 271.292L60.9268 263.758H62.1201L58.3623 273H57.4355L53.6904 263.758ZM53.3032 263.758H54.3506L54.522 269.395V273H53.3032V263.758ZM61.4536 263.758H62.501V273H61.2822V269.395L61.4536 263.758ZM67.9473 268.677H65.605L65.5923 267.693H67.7188C68.07 267.693 68.3768 267.634 68.6392 267.516C68.9015 267.397 69.1047 267.228 69.2485 267.008C69.3966 266.784 69.4707 266.517 69.4707 266.208C69.4707 265.869 69.4051 265.594 69.2739 265.383C69.147 265.167 68.9502 265.01 68.6836 264.913C68.4212 264.812 68.0869 264.761 67.6807 264.761H65.8779V273H64.6528V263.758H67.6807C68.1546 263.758 68.5778 263.806 68.9502 263.904C69.3226 263.997 69.6379 264.145 69.896 264.348C70.1584 264.547 70.3573 264.801 70.4927 265.11C70.6281 265.419 70.6958 265.789 70.6958 266.221C70.6958 266.602 70.5985 266.946 70.4038 267.255C70.2091 267.56 69.9383 267.81 69.5913 268.004C69.2485 268.199 68.8465 268.324 68.3853 268.379L67.9473 268.677ZM67.8901 273H65.1226L65.8145 272.003H67.8901C68.2795 272.003 68.6095 271.936 68.8804 271.8C69.1554 271.665 69.3649 271.474 69.5088 271.229C69.6527 270.979 69.7246 270.685 69.7246 270.347C69.7246 270.004 69.6632 269.708 69.5405 269.458C69.4178 269.208 69.2253 269.016 68.9629 268.88C68.7005 268.745 68.362 268.677 67.9473 268.677H66.2017L66.2144 267.693H68.6011L68.8613 268.049C69.3057 268.087 69.6823 268.214 69.9912 268.43C70.3001 268.641 70.535 268.912 70.6958 269.242C70.8608 269.572 70.9434 269.936 70.9434 270.334C70.9434 270.91 70.8164 271.396 70.5625 271.794C70.3128 272.188 69.9595 272.488 69.5024 272.695C69.0454 272.898 68.508 273 67.8901 273ZM72.7524 263.758H75.812C76.506 263.758 77.0921 263.864 77.5703 264.075C78.0527 264.287 78.4188 264.6 78.6685 265.015C78.9224 265.425 79.0493 265.931 79.0493 266.532C79.0493 266.955 78.9626 267.342 78.7891 267.693C78.6198 268.04 78.3743 268.337 78.0527 268.582C77.7354 268.823 77.3545 269.003 76.9102 269.122L76.5674 269.255H73.6919L73.6792 268.258H75.8501C76.2902 268.258 76.6562 268.182 76.9482 268.03C77.2402 267.873 77.4603 267.664 77.6084 267.401C77.7565 267.139 77.8306 266.849 77.8306 266.532C77.8306 266.176 77.7607 265.865 77.6211 265.599C77.4814 265.332 77.2614 265.127 76.9609 264.983C76.6647 264.835 76.2817 264.761 75.812 264.761H73.9775V273H72.7524V263.758ZM78.1543 273L75.9072 268.811L77.1831 268.804L79.4619 272.924V273H78.1543ZM86.6348 272.003V273H81.7407V272.003H86.6348ZM81.9883 263.758V273H80.7632V263.758H81.9883ZM85.9873 267.731V268.728H81.7407V267.731H85.9873ZM86.5713 263.758V264.761H81.7407V263.758H86.5713ZM93.0776 270.664C93.0776 270.448 93.0438 270.258 92.9761 270.093C92.9126 269.924 92.7983 269.771 92.6333 269.636C92.4725 269.5 92.2482 269.371 91.9604 269.249C91.6769 269.126 91.3172 269.001 90.8813 268.874C90.4243 268.739 90.0117 268.588 89.6436 268.423C89.2754 268.254 88.9601 268.062 88.6978 267.846C88.4354 267.63 88.2344 267.382 88.0947 267.103C87.9551 266.824 87.8853 266.504 87.8853 266.145C87.8853 265.785 87.9593 265.453 88.1074 265.148C88.2555 264.843 88.4671 264.579 88.7422 264.354C89.0215 264.126 89.3537 263.948 89.7388 263.821C90.1239 263.694 90.5534 263.631 91.0273 263.631C91.7214 263.631 92.3096 263.764 92.792 264.031C93.2786 264.293 93.6489 264.638 93.9028 265.065C94.1567 265.489 94.2837 265.941 94.2837 266.424H93.0649C93.0649 266.077 92.9909 265.77 92.8428 265.503C92.6947 265.233 92.4704 265.021 92.1699 264.869C91.8695 264.712 91.4886 264.634 91.0273 264.634C90.5915 264.634 90.2318 264.699 89.9482 264.831C89.6647 264.962 89.4531 265.139 89.3135 265.364C89.1781 265.588 89.1104 265.844 89.1104 266.132C89.1104 266.326 89.1506 266.504 89.231 266.665C89.3156 266.822 89.4447 266.968 89.6182 267.103C89.7959 267.238 90.0202 267.363 90.291 267.478C90.5661 267.592 90.894 267.702 91.2749 267.808C91.7996 267.956 92.2524 268.121 92.6333 268.303C93.0142 268.485 93.3273 268.69 93.5728 268.918C93.8224 269.143 94.0065 269.399 94.125 269.687C94.2477 269.97 94.3091 270.292 94.3091 270.651C94.3091 271.028 94.2329 271.369 94.0806 271.673C93.9282 271.978 93.7103 272.238 93.4268 272.454C93.1432 272.67 92.8026 272.837 92.4048 272.956C92.0112 273.07 91.5711 273.127 91.0845 273.127C90.6571 273.127 90.236 273.068 89.8213 272.949C89.4108 272.831 89.0363 272.653 88.6978 272.416C88.3634 272.179 88.0947 271.887 87.8916 271.54C87.6927 271.189 87.5933 270.783 87.5933 270.321H88.812C88.812 270.639 88.8734 270.912 88.9961 271.14C89.1188 271.364 89.286 271.551 89.4976 271.699C89.7134 271.847 89.9567 271.957 90.2275 272.029C90.5026 272.097 90.7882 272.13 91.0845 272.13C91.5119 272.13 91.8737 272.071 92.1699 271.953C92.4661 271.834 92.6904 271.665 92.8428 271.445C92.9993 271.225 93.0776 270.965 93.0776 270.664Z" fill="#F0F0F0"/>
<path d="M102.049 125.177V138H99.5176V128.095L96.4766 129.062V127.066L101.776 125.177H102.049ZM106.443 136.778C106.443 136.403 106.572 136.09 106.83 135.838C107.094 135.586 107.442 135.46 107.876 135.46C108.31 135.46 108.655 135.586 108.913 135.838C109.177 136.09 109.309 136.403 109.309 136.778C109.309 137.153 109.177 137.467 108.913 137.719C108.655 137.971 108.31 138.097 107.876 138.097C107.442 138.097 107.094 137.971 106.83 137.719C106.572 137.467 106.443 137.153 106.443 136.778ZM120.049 130.477V132.691C120.049 133.652 119.946 134.481 119.741 135.179C119.536 135.87 119.24 136.438 118.854 136.884C118.473 137.323 118.019 137.648 117.491 137.859C116.964 138.07 116.378 138.176 115.733 138.176C115.218 138.176 114.737 138.111 114.292 137.982C113.847 137.848 113.445 137.64 113.088 137.358C112.736 137.077 112.432 136.723 112.174 136.295C111.922 135.861 111.729 135.346 111.594 134.748C111.459 134.15 111.392 133.465 111.392 132.691V130.477C111.392 129.516 111.494 128.692 111.699 128.007C111.91 127.315 112.206 126.75 112.587 126.311C112.974 125.871 113.431 125.549 113.958 125.344C114.485 125.133 115.071 125.027 115.716 125.027C116.231 125.027 116.709 125.095 117.148 125.229C117.594 125.358 117.995 125.561 118.353 125.836C118.71 126.111 119.015 126.466 119.267 126.899C119.519 127.327 119.712 127.84 119.847 128.438C119.981 129.029 120.049 129.709 120.049 130.477ZM117.509 133.025V130.134C117.509 129.671 117.482 129.267 117.43 128.921C117.383 128.575 117.31 128.282 117.21 128.042C117.11 127.796 116.987 127.597 116.841 127.444C116.694 127.292 116.527 127.181 116.34 127.11C116.152 127.04 115.944 127.005 115.716 127.005C115.429 127.005 115.174 127.061 114.951 127.172C114.734 127.283 114.55 127.462 114.397 127.708C114.245 127.948 114.128 128.271 114.046 128.675C113.97 129.073 113.932 129.56 113.932 130.134V133.025C113.932 133.488 113.955 133.896 114.002 134.247C114.055 134.599 114.131 134.9 114.23 135.152C114.336 135.398 114.459 135.601 114.6 135.759C114.746 135.911 114.913 136.022 115.101 136.093C115.294 136.163 115.505 136.198 115.733 136.198C116.015 136.198 116.264 136.143 116.48 136.031C116.703 135.914 116.891 135.732 117.043 135.486C117.201 135.234 117.318 134.906 117.395 134.502C117.471 134.098 117.509 133.605 117.509 133.025ZM127.941 125.177V138H125.41V128.095L122.369 129.062V127.066L127.669 125.177H127.941ZM140.861 136.022V138H132.107V136.312L136.247 131.874C136.663 131.411 136.991 131.004 137.231 130.652C137.472 130.295 137.645 129.976 137.75 129.694C137.861 129.407 137.917 129.135 137.917 128.877C137.917 128.49 137.853 128.159 137.724 127.884C137.595 127.603 137.404 127.386 137.152 127.233C136.906 127.081 136.602 127.005 136.238 127.005C135.852 127.005 135.518 127.099 135.236 127.286C134.961 127.474 134.75 127.734 134.604 128.068C134.463 128.402 134.393 128.78 134.393 129.202H131.853C131.853 128.44 132.034 127.743 132.397 127.11C132.761 126.472 133.273 125.965 133.936 125.59C134.598 125.209 135.383 125.019 136.291 125.019C137.188 125.019 137.943 125.165 138.559 125.458C139.18 125.745 139.648 126.161 139.965 126.706C140.287 127.245 140.448 127.89 140.448 128.64C140.448 129.062 140.381 129.475 140.246 129.879C140.111 130.277 139.918 130.676 139.666 131.074C139.42 131.467 139.121 131.865 138.77 132.27C138.418 132.674 138.028 133.093 137.601 133.526L135.377 136.022H140.861ZM142.672 136.778C142.672 136.403 142.801 136.09 143.059 135.838C143.322 135.586 143.671 135.46 144.104 135.46C144.538 135.46 144.884 135.586 145.142 135.838C145.405 136.09 145.537 136.403 145.537 136.778C145.537 137.153 145.405 137.467 145.142 137.719C144.884 137.971 144.538 138.097 144.104 138.097C143.671 138.097 143.322 137.971 143.059 137.719C142.801 137.467 142.672 137.153 142.672 136.778ZM150.257 130.503H151.61C152.044 130.503 152.401 130.43 152.683 130.283C152.964 130.131 153.172 129.92 153.307 129.65C153.447 129.375 153.518 129.056 153.518 128.692C153.518 128.364 153.453 128.074 153.324 127.822C153.201 127.564 153.011 127.365 152.753 127.225C152.495 127.078 152.17 127.005 151.777 127.005C151.467 127.005 151.18 127.066 150.916 127.189C150.652 127.312 150.441 127.485 150.283 127.708C150.125 127.931 150.046 128.2 150.046 128.517H147.506C147.506 127.813 147.693 127.201 148.068 126.68C148.449 126.158 148.959 125.751 149.598 125.458C150.236 125.165 150.939 125.019 151.707 125.019C152.574 125.019 153.333 125.159 153.983 125.44C154.634 125.716 155.141 126.123 155.504 126.662C155.867 127.201 156.049 127.869 156.049 128.666C156.049 129.07 155.955 129.463 155.768 129.844C155.58 130.219 155.311 130.559 154.959 130.863C154.613 131.162 154.191 131.402 153.693 131.584C153.195 131.76 152.636 131.848 152.015 131.848H150.257V130.503ZM150.257 132.428V131.118H152.015C152.712 131.118 153.324 131.197 153.852 131.355C154.379 131.514 154.821 131.742 155.179 132.041C155.536 132.334 155.806 132.683 155.987 133.087C156.169 133.485 156.26 133.928 156.26 134.414C156.26 135.012 156.146 135.545 155.917 136.014C155.688 136.477 155.366 136.869 154.95 137.191C154.54 137.514 154.06 137.76 153.509 137.93C152.958 138.094 152.357 138.176 151.707 138.176C151.168 138.176 150.638 138.103 150.116 137.956C149.601 137.804 149.132 137.578 148.71 137.279C148.294 136.975 147.96 136.594 147.708 136.137C147.462 135.674 147.339 135.126 147.339 134.493H149.879C149.879 134.821 149.961 135.114 150.125 135.372C150.289 135.63 150.515 135.832 150.802 135.979C151.095 136.125 151.42 136.198 151.777 136.198C152.182 136.198 152.527 136.125 152.814 135.979C153.107 135.826 153.33 135.615 153.482 135.346C153.641 135.07 153.72 134.751 153.72 134.388C153.72 133.919 153.635 133.544 153.465 133.263C153.295 132.976 153.052 132.765 152.735 132.63C152.419 132.495 152.044 132.428 151.61 132.428H150.257ZM166.965 133.219V135.205H157.745L157.622 133.667L162.957 125.203H164.97L162.79 128.851L160.136 133.219H166.965ZM165.515 125.203V138H162.983V125.203H165.515ZM170.718 132.173L168.696 131.689L169.426 125.203H176.615V127.251H171.509L171.192 130.09C171.362 129.99 171.62 129.885 171.966 129.773C172.312 129.656 172.698 129.598 173.126 129.598C173.747 129.598 174.298 129.694 174.778 129.888C175.259 130.081 175.666 130.362 176 130.731C176.34 131.101 176.598 131.552 176.773 132.085C176.949 132.618 177.037 133.222 177.037 133.896C177.037 134.464 176.949 135.006 176.773 135.521C176.598 136.031 176.331 136.488 175.974 136.893C175.616 137.291 175.168 137.604 174.629 137.833C174.09 138.062 173.451 138.176 172.713 138.176C172.162 138.176 171.629 138.094 171.113 137.93C170.604 137.766 170.144 137.522 169.733 137.2C169.329 136.878 169.004 136.488 168.758 136.031C168.518 135.568 168.392 135.041 168.38 134.449H170.894C170.929 134.812 171.022 135.126 171.175 135.39C171.333 135.647 171.541 135.847 171.799 135.987C172.057 136.128 172.358 136.198 172.704 136.198C173.026 136.198 173.302 136.137 173.53 136.014C173.759 135.891 173.943 135.721 174.084 135.504C174.225 135.281 174.327 135.023 174.392 134.73C174.462 134.432 174.497 134.109 174.497 133.764C174.497 133.418 174.456 133.104 174.374 132.823C174.292 132.542 174.166 132.299 173.996 132.094C173.826 131.889 173.609 131.73 173.346 131.619C173.088 131.508 172.786 131.452 172.44 131.452C171.972 131.452 171.608 131.525 171.351 131.672C171.099 131.818 170.888 131.985 170.718 132.173ZM178.9 136.778C178.9 136.403 179.029 136.09 179.287 135.838C179.551 135.586 179.899 135.46 180.333 135.46C180.767 135.46 181.112 135.586 181.37 135.838C181.634 136.09 181.766 136.403 181.766 136.778C181.766 137.153 181.634 137.467 181.37 137.719C181.112 137.971 180.767 138.097 180.333 138.097C179.899 138.097 179.551 137.971 179.287 137.719C179.029 137.467 178.9 137.153 178.9 136.778ZM190.423 125.071H190.792V127.093H190.643C189.975 127.093 189.38 127.192 188.858 127.392C188.337 127.591 187.895 127.875 187.531 128.244C187.174 128.607 186.898 129.047 186.705 129.562C186.518 130.078 186.424 130.655 186.424 131.294V133.421C186.424 133.878 186.468 134.282 186.556 134.634C186.649 134.979 186.781 135.27 186.951 135.504C187.127 135.732 187.332 135.905 187.566 136.022C187.801 136.134 188.064 136.189 188.357 136.189C188.633 136.189 188.882 136.131 189.104 136.014C189.333 135.896 189.526 135.732 189.685 135.521C189.849 135.305 189.972 135.053 190.054 134.766C190.142 134.473 190.186 134.153 190.186 133.808C190.186 133.462 190.142 133.143 190.054 132.85C189.972 132.557 189.849 132.305 189.685 132.094C189.521 131.877 189.321 131.71 189.087 131.593C188.853 131.476 188.589 131.417 188.296 131.417C187.897 131.417 187.546 131.511 187.241 131.698C186.942 131.88 186.708 132.114 186.538 132.401C186.368 132.688 186.277 132.99 186.266 133.307L185.501 132.814C185.519 132.363 185.612 131.936 185.782 131.531C185.958 131.127 186.198 130.77 186.503 130.459C186.813 130.143 187.186 129.896 187.619 129.721C188.053 129.539 188.542 129.448 189.087 129.448C189.685 129.448 190.209 129.562 190.66 129.791C191.117 130.02 191.498 130.333 191.803 130.731C192.107 131.13 192.336 131.59 192.488 132.111C192.641 132.633 192.717 133.189 192.717 133.781C192.717 134.402 192.614 134.979 192.409 135.513C192.21 136.046 191.92 136.512 191.539 136.91C191.164 137.309 190.713 137.619 190.186 137.842C189.658 138.064 189.066 138.176 188.41 138.176C187.73 138.176 187.112 138.053 186.556 137.807C186.005 137.555 185.53 137.203 185.132 136.752C184.733 136.301 184.426 135.765 184.209 135.144C183.998 134.522 183.893 133.843 183.893 133.104V132.12C183.893 131.089 184.042 130.146 184.341 129.29C184.646 128.429 185.082 127.685 185.65 127.058C186.219 126.425 186.904 125.936 187.707 125.59C188.51 125.244 189.415 125.071 190.423 125.071ZM202.921 125.203V126.565L197.973 138H195.301L200.249 127.181H193.877V125.203H202.921ZM213.187 134.493C213.187 135.296 212.999 135.973 212.624 136.523C212.249 137.068 211.733 137.481 211.077 137.763C210.427 138.038 209.688 138.176 208.862 138.176C208.036 138.176 207.295 138.038 206.639 137.763C205.982 137.481 205.464 137.068 205.083 136.523C204.702 135.973 204.512 135.296 204.512 134.493C204.512 133.954 204.62 133.468 204.837 133.034C205.054 132.595 205.355 132.22 205.742 131.909C206.135 131.593 206.595 131.353 207.122 131.188C207.649 131.019 208.224 130.934 208.845 130.934C209.677 130.934 210.421 131.08 211.077 131.373C211.733 131.666 212.249 132.079 212.624 132.612C212.999 133.146 213.187 133.772 213.187 134.493ZM210.638 134.326C210.638 133.934 210.562 133.597 210.409 133.315C210.263 133.028 210.055 132.809 209.785 132.656C209.516 132.504 209.202 132.428 208.845 132.428C208.487 132.428 208.174 132.504 207.904 132.656C207.635 132.809 207.424 133.028 207.271 133.315C207.125 133.597 207.052 133.934 207.052 134.326C207.052 134.713 207.125 135.047 207.271 135.328C207.424 135.609 207.635 135.826 207.904 135.979C208.18 136.125 208.499 136.198 208.862 136.198C209.226 136.198 209.539 136.125 209.803 135.979C210.072 135.826 210.277 135.609 210.418 135.328C210.564 135.047 210.638 134.713 210.638 134.326ZM212.914 128.596C212.914 129.246 212.741 129.823 212.396 130.327C212.05 130.825 211.569 131.215 210.954 131.496C210.345 131.777 209.647 131.918 208.862 131.918C208.071 131.918 207.368 131.777 206.753 131.496C206.138 131.215 205.657 130.825 205.312 130.327C204.966 129.823 204.793 129.246 204.793 128.596C204.793 127.822 204.966 127.172 205.312 126.645C205.663 126.111 206.144 125.707 206.753 125.432C207.368 125.156 208.065 125.019 208.845 125.019C209.636 125.019 210.336 125.156 210.945 125.432C211.561 125.707 212.041 126.111 212.387 126.645C212.738 127.172 212.914 127.822 212.914 128.596ZM210.383 128.71C210.383 128.364 210.321 128.065 210.198 127.813C210.075 127.556 209.899 127.356 209.671 127.216C209.448 127.075 209.173 127.005 208.845 127.005C208.528 127.005 208.256 127.072 208.027 127.207C207.805 127.342 207.632 127.538 207.509 127.796C207.392 128.048 207.333 128.353 207.333 128.71C207.333 129.056 207.392 129.36 207.509 129.624C207.632 129.882 207.808 130.084 208.036 130.23C208.265 130.377 208.54 130.45 208.862 130.45C209.185 130.45 209.457 130.377 209.68 130.23C209.908 130.084 210.081 129.882 210.198 129.624C210.321 129.36 210.383 129.056 210.383 128.71Z" fill="#F0F0F0"/>
<path d="M65.2695 40.7812H70.5723C71.6595 40.7812 72.5938 40.944 73.375 41.2695C74.1628 41.5951 74.7682 42.0768 75.1914 42.7148C75.6146 43.3529 75.8262 44.1374 75.8262 45.0684C75.8262 45.8301 75.696 46.4844 75.4355 47.0312C75.1816 47.5716 74.8203 48.0241 74.3516 48.3887C73.8893 48.7467 73.3457 49.0332 72.7207 49.248L71.793 49.7363H67.1836L67.1641 47.4512H70.5918C71.1061 47.4512 71.5326 47.36 71.8711 47.1777C72.2096 46.9954 72.4635 46.7415 72.6328 46.416C72.8086 46.0905 72.8965 45.7129 72.8965 45.2832C72.8965 44.8275 72.8118 44.4336 72.6426 44.1016C72.4733 43.7695 72.2161 43.5156 71.8711 43.3398C71.526 43.1641 71.0931 43.0762 70.5723 43.0762H68.1992V55H65.2695V40.7812ZM73.2188 55L69.9766 48.6621L73.0723 48.6426L76.3535 54.8633V55H73.2188ZM87.623 52.7148V55H80.0547V52.7148H87.623ZM81.0117 40.7812V55H78.082V40.7812H81.0117ZM86.6367 46.5723V48.7988H80.0547V46.5723H86.6367ZM87.6133 40.7812V43.0762H80.0547V40.7812H87.6133ZM94.8691 49.9316H91.2461V47.6465H94.8691C95.429 47.6465 95.8848 47.5553 96.2363 47.373C96.5879 47.1842 96.8451 46.9238 97.0078 46.5918C97.1706 46.2598 97.252 45.8854 97.252 45.4688C97.252 45.0456 97.1706 44.6517 97.0078 44.2871C96.8451 43.9225 96.5879 43.6296 96.2363 43.4082C95.8848 43.1868 95.429 43.0762 94.8691 43.0762H92.2617V55H89.332V40.7812H94.8691C95.9824 40.7812 96.9362 40.9831 97.7305 41.3867C98.5312 41.7839 99.1432 42.334 99.5664 43.0371C99.9896 43.7402 100.201 44.5443 100.201 45.4492C100.201 46.3672 99.9896 47.1615 99.5664 47.832C99.1432 48.5026 98.5312 49.0202 97.7305 49.3848C96.9362 49.7493 95.9824 49.9316 94.8691 49.9316ZM110.074 40.7812H112.994V50.1758C112.994 51.2695 112.76 52.1908 112.291 52.9395C111.829 53.6882 111.188 54.2513 110.367 54.6289C109.553 55.0065 108.616 55.1953 107.555 55.1953C106.493 55.1953 105.549 55.0065 104.723 54.6289C103.902 54.2513 103.258 53.6882 102.789 52.9395C102.327 52.1908 102.096 51.2695 102.096 50.1758V40.7812H105.025V50.1758C105.025 50.8138 105.126 51.3346 105.328 51.7383C105.53 52.1419 105.82 52.4382 106.197 52.627C106.581 52.8158 107.034 52.9102 107.555 52.9102C108.089 52.9102 108.541 52.8158 108.912 52.627C109.29 52.4382 109.576 52.1419 109.771 51.7383C109.973 51.3346 110.074 50.8138 110.074 50.1758V40.7812ZM120.973 48.7598H117.32L117.301 46.748H120.367C120.908 46.748 121.35 46.6797 121.695 46.543C122.04 46.3997 122.298 46.1947 122.467 45.9277C122.643 45.6543 122.73 45.3223 122.73 44.9316C122.73 44.4889 122.646 44.1309 122.477 43.8574C122.314 43.584 122.057 43.3854 121.705 43.2617C121.36 43.138 120.914 43.0762 120.367 43.0762H118.336V55H115.406V40.7812H120.367C121.194 40.7812 121.933 40.8594 122.584 41.0156C123.242 41.1719 123.798 41.4095 124.254 41.7285C124.71 42.0475 125.058 42.4512 125.299 42.9395C125.54 43.4212 125.66 43.9941 125.66 44.6582C125.66 45.2441 125.527 45.7845 125.26 46.2793C124.999 46.7741 124.586 47.1777 124.02 47.4902C123.46 47.8027 122.727 47.9753 121.822 48.0078L120.973 48.7598ZM120.846 55H116.52L117.662 52.7148H120.846C121.36 52.7148 121.78 52.6335 122.105 52.4707C122.431 52.3014 122.672 52.0736 122.828 51.7871C122.984 51.5007 123.062 51.1719 123.062 50.8008C123.062 50.3841 122.991 50.0228 122.848 49.7168C122.711 49.4108 122.49 49.1764 122.184 49.0137C121.878 48.8444 121.474 48.7598 120.973 48.7598H118.15L118.17 46.748H121.686L122.359 47.5391C123.225 47.526 123.922 47.679 124.449 47.998C124.983 48.3105 125.37 48.7174 125.611 49.2188C125.859 49.7201 125.982 50.2572 125.982 50.8301C125.982 51.7415 125.784 52.5098 125.387 53.1348C124.99 53.7533 124.407 54.2188 123.639 54.5312C122.877 54.8438 121.946 55 120.846 55ZM137.32 52.7148V55H130.162V52.7148H137.32ZM131.109 40.7812V55H128.18V40.7812H131.109ZM142.115 40.7812V55H139.195V40.7812H142.115ZM153.102 50.2832H156.021C155.963 51.2402 155.699 52.0898 155.23 52.832C154.768 53.5742 154.12 54.1536 153.287 54.5703C152.46 54.987 151.464 55.1953 150.299 55.1953C149.387 55.1953 148.57 55.0391 147.848 54.7266C147.125 54.4076 146.507 53.9518 145.992 53.3594C145.484 52.7669 145.097 52.0508 144.83 51.2109C144.563 50.3711 144.43 49.4303 144.43 48.3887V47.4023C144.43 46.3607 144.566 45.4199 144.84 44.5801C145.12 43.7337 145.517 43.0143 146.031 42.4219C146.552 41.8294 147.174 41.3737 147.896 41.0547C148.619 40.7357 149.426 40.5762 150.318 40.5762C151.503 40.5762 152.503 40.791 153.316 41.2207C154.137 41.6504 154.771 42.2428 155.221 42.998C155.676 43.7533 155.95 44.6126 156.041 45.5762H153.111C153.079 45.0033 152.965 44.5182 152.77 44.1211C152.574 43.7174 152.278 43.4147 151.881 43.2129C151.49 43.0046 150.969 42.9004 150.318 42.9004C149.83 42.9004 149.404 42.9915 149.039 43.1738C148.674 43.3561 148.368 43.6328 148.121 44.0039C147.874 44.375 147.688 44.8438 147.564 45.4102C147.447 45.9701 147.389 46.6276 147.389 47.3828V48.3887C147.389 49.1243 147.444 49.7721 147.555 50.332C147.665 50.8854 147.835 51.3542 148.062 51.7383C148.297 52.1159 148.596 52.4023 148.961 52.5977C149.332 52.7865 149.778 52.8809 150.299 52.8809C150.911 52.8809 151.415 52.7832 151.812 52.5879C152.21 52.3926 152.512 52.1029 152.721 51.7188C152.936 51.3346 153.062 50.8561 153.102 50.2832ZM163.727 43.2129L159.859 55H156.744L162.027 40.7812H164.01L163.727 43.2129ZM166.939 55L163.062 43.2129L162.75 40.7812H164.752L170.064 55H166.939ZM166.764 49.707V52.002H159.254V49.707H166.764ZM180.729 55H177.633L177.652 52.7148H180.729C181.497 52.7148 182.145 52.5423 182.672 52.1973C183.199 51.8457 183.596 51.3346 183.863 50.6641C184.137 49.9935 184.273 49.1829 184.273 48.2324V47.5391C184.273 46.8099 184.195 46.1686 184.039 45.6152C183.889 45.0618 183.665 44.5964 183.365 44.2188C183.066 43.8411 182.698 43.5579 182.262 43.3691C181.826 43.1738 181.324 43.0762 180.758 43.0762H177.574V40.7812H180.758C181.708 40.7812 182.577 40.944 183.365 41.2695C184.16 41.5885 184.846 42.0475 185.426 42.6465C186.005 43.2454 186.451 43.9616 186.764 44.7949C187.083 45.6217 187.242 46.543 187.242 47.5586V48.2324C187.242 49.2415 187.083 50.1628 186.764 50.9961C186.451 51.8294 186.005 52.5456 185.426 53.1445C184.853 53.737 184.166 54.196 183.365 54.5215C182.571 54.8405 181.692 55 180.729 55ZM179.293 40.7812V55H176.363V40.7812H179.293ZM198.912 52.7148V55H191.344V52.7148H198.912ZM192.301 40.7812V55H189.371V40.7812H192.301ZM197.926 46.5723V48.7988H191.344V46.5723H197.926ZM198.902 40.7812V43.0762H191.344V40.7812H198.902ZM213.844 50.2832H216.764C216.705 51.2402 216.441 52.0898 215.973 52.832C215.51 53.5742 214.863 54.1536 214.029 54.5703C213.202 54.987 212.206 55.1953 211.041 55.1953C210.13 55.1953 209.312 55.0391 208.59 54.7266C207.867 54.4076 207.249 53.9518 206.734 53.3594C206.227 52.7669 205.839 52.0508 205.572 51.2109C205.305 50.3711 205.172 49.4303 205.172 48.3887V47.4023C205.172 46.3607 205.309 45.4199 205.582 44.5801C205.862 43.7337 206.259 43.0143 206.773 42.4219C207.294 41.8294 207.916 41.3737 208.639 41.0547C209.361 40.7357 210.169 40.5762 211.061 40.5762C212.245 40.5762 213.245 40.791 214.059 41.2207C214.879 41.6504 215.514 42.2428 215.963 42.998C216.419 43.7533 216.692 44.6126 216.783 45.5762H213.854C213.821 45.0033 213.707 44.5182 213.512 44.1211C213.316 43.7174 213.02 43.4147 212.623 43.2129C212.232 43.0046 211.712 42.9004 211.061 42.9004C210.572 42.9004 210.146 42.9915 209.781 43.1738C209.417 43.3561 209.111 43.6328 208.863 44.0039C208.616 44.375 208.43 44.8438 208.307 45.4102C208.189 45.9701 208.131 46.6276 208.131 47.3828V48.3887C208.131 49.1243 208.186 49.7721 208.297 50.332C208.408 50.8854 208.577 51.3542 208.805 51.7383C209.039 52.1159 209.339 52.4023 209.703 52.5977C210.074 52.7865 210.52 52.8809 211.041 52.8809C211.653 52.8809 212.158 52.7832 212.555 52.5879C212.952 52.3926 213.255 52.1029 213.463 51.7188C213.678 51.3346 213.805 50.8561 213.844 50.2832ZM230.367 47.5586V48.2324C230.367 49.3132 230.221 50.2832 229.928 51.1426C229.635 52.002 229.221 52.7344 228.688 53.3398C228.154 53.9388 227.516 54.3978 226.773 54.7168C226.038 55.0358 225.221 55.1953 224.322 55.1953C223.43 55.1953 222.613 55.0358 221.871 54.7168C221.135 54.3978 220.497 53.9388 219.957 53.3398C219.417 52.7344 218.997 52.002 218.697 51.1426C218.404 50.2832 218.258 49.3132 218.258 48.2324V47.5586C218.258 46.4714 218.404 45.5013 218.697 44.6484C218.99 43.7891 219.404 43.0566 219.938 42.4512C220.478 41.8457 221.116 41.3835 221.852 41.0645C222.594 40.7454 223.411 40.5859 224.303 40.5859C225.201 40.5859 226.018 40.7454 226.754 41.0645C227.496 41.3835 228.134 41.8457 228.668 42.4512C229.208 43.0566 229.625 43.7891 229.918 44.6484C230.217 45.5013 230.367 46.4714 230.367 47.5586ZM227.408 48.2324V47.5391C227.408 46.7839 227.34 46.1198 227.203 45.5469C227.066 44.974 226.865 44.4922 226.598 44.1016C226.331 43.7109 226.005 43.418 225.621 43.2227C225.237 43.0208 224.798 42.9199 224.303 42.9199C223.808 42.9199 223.368 43.0208 222.984 43.2227C222.607 43.418 222.285 43.7109 222.018 44.1016C221.757 44.4922 221.559 44.974 221.422 45.5469C221.285 46.1198 221.217 46.7839 221.217 47.5391V48.2324C221.217 48.9811 221.285 49.6452 221.422 50.2246C221.559 50.7975 221.76 51.2826 222.027 51.6797C222.294 52.0703 222.62 52.3665 223.004 52.5684C223.388 52.7702 223.827 52.8711 224.322 52.8711C224.817 52.8711 225.257 52.7702 225.641 52.5684C226.025 52.3665 226.347 52.0703 226.607 51.6797C226.868 51.2826 227.066 50.7975 227.203 50.2246C227.34 49.6452 227.408 48.9811 227.408 48.2324ZM241.617 52.7148V55H234.459V52.7148H241.617ZM235.406 40.7812V55H232.477V40.7812H235.406ZM254.352 47.5586V48.2324C254.352 49.3132 254.205 50.2832 253.912 51.1426C253.619 52.002 253.206 52.7344 252.672 53.3398C252.138 53.9388 251.5 54.3978 250.758 54.7168C250.022 55.0358 249.205 55.1953 248.307 55.1953C247.415 55.1953 246.598 55.0358 245.855 54.7168C245.12 54.3978 244.482 53.9388 243.941 53.3398C243.401 52.7344 242.981 52.002 242.682 51.1426C242.389 50.2832 242.242 49.3132 242.242 48.2324V47.5586C242.242 46.4714 242.389 45.5013 242.682 44.6484C242.975 43.7891 243.388 43.0566 243.922 42.4512C244.462 41.8457 245.1 41.3835 245.836 41.0645C246.578 40.7454 247.395 40.5859 248.287 40.5859C249.186 40.5859 250.003 40.7454 250.738 41.0645C251.48 41.3835 252.118 41.8457 252.652 42.4512C253.193 43.0566 253.609 43.7891 253.902 44.6484C254.202 45.5013 254.352 46.4714 254.352 47.5586ZM251.393 48.2324V47.5391C251.393 46.7839 251.324 46.1198 251.188 45.5469C251.051 44.974 250.849 44.4922 250.582 44.1016C250.315 43.7109 249.99 43.418 249.605 43.2227C249.221 43.0208 248.782 42.9199 248.287 42.9199C247.792 42.9199 247.353 43.0208 246.969 43.2227C246.591 43.418 246.269 43.7109 246.002 44.1016C245.742 44.4922 245.543 44.974 245.406 45.5469C245.27 46.1198 245.201 46.7839 245.201 47.5391V48.2324C245.201 48.9811 245.27 49.6452 245.406 50.2246C245.543 50.7975 245.745 51.2826 246.012 51.6797C246.279 52.0703 246.604 52.3665 246.988 52.5684C247.372 52.7702 247.812 52.8711 248.307 52.8711C248.801 52.8711 249.241 52.7702 249.625 52.5684C250.009 52.3665 250.331 52.0703 250.592 51.6797C250.852 51.2826 251.051 50.7975 251.188 50.2246C251.324 49.6452 251.393 48.9811 251.393 48.2324ZM257.799 40.7812H260.279L263.932 51.2207L267.584 40.7812H270.064L264.928 55H262.936L257.799 40.7812ZM256.461 40.7812H258.932L259.381 50.957V55H256.461V40.7812ZM268.932 40.7812H271.412V55H268.482V50.957L268.932 40.7812ZM279.547 48.7598H275.895L275.875 46.748H278.941C279.482 46.748 279.924 46.6797 280.27 46.543C280.615 46.3997 280.872 46.1947 281.041 45.9277C281.217 45.6543 281.305 45.3223 281.305 44.9316C281.305 44.4889 281.22 44.1309 281.051 43.8574C280.888 43.584 280.631 43.3854 280.279 43.2617C279.934 43.138 279.488 43.0762 278.941 43.0762H276.91V55H273.98V40.7812H278.941C279.768 40.7812 280.507 40.8594 281.158 41.0156C281.816 41.1719 282.372 41.4095 282.828 41.7285C283.284 42.0475 283.632 42.4512 283.873 42.9395C284.114 43.4212 284.234 43.9941 284.234 44.6582C284.234 45.2441 284.101 45.7845 283.834 46.2793C283.574 46.7741 283.16 47.1777 282.594 47.4902C282.034 47.8027 281.301 47.9753 280.396 48.0078L279.547 48.7598ZM279.42 55H275.094L276.236 52.7148H279.42C279.934 52.7148 280.354 52.6335 280.68 52.4707C281.005 52.3014 281.246 52.0736 281.402 51.7871C281.559 51.5007 281.637 51.1719 281.637 50.8008C281.637 50.3841 281.565 50.0228 281.422 49.7168C281.285 49.4108 281.064 49.1764 280.758 49.0137C280.452 48.8444 280.048 48.7598 279.547 48.7598H276.725L276.744 46.748H280.26L280.934 47.5391C281.799 47.526 282.496 47.679 283.023 47.998C283.557 48.3105 283.945 48.7174 284.186 49.2188C284.433 49.7201 284.557 50.2572 284.557 50.8301C284.557 51.7415 284.358 52.5098 283.961 53.1348C283.564 53.7533 282.981 54.2188 282.213 54.5312C281.451 54.8438 280.52 55 279.42 55ZM289.869 40.7812V55H286.949V40.7812H289.869ZM298.57 43.2129L294.703 55H291.588L296.871 40.7812H298.854L298.57 43.2129ZM301.783 55L297.906 43.2129L297.594 40.7812H299.596L304.908 55H301.783ZM301.607 49.707V52.002H294.098V49.707H301.607Z" fill="#F0F0F0"/>
</svg>
